<svg width="151" height="40" viewBox="0 0 151 40" fill="none" xmlns="http://www.w3.org/2000/svg">
<path d="M48.2808 11.7869V12.6047H51.9867V16.3265H48.2808V29.0441C48.2808 32.6157 46.2109 34.535 42.2712 34.535H41.1361V30.8132H41.8873C43.3563 30.8132 44.2077 29.9954 44.2077 28.5935V16.3432H41.7037V12.6214H44.2077V11.3363C44.2077 7.76473 46.311 5.84541 50.2172 5.84541H51.97V9.56722H50.6346C49.1656 9.55053 48.2808 10.3683 48.2808 11.7869Z" fill="#474FEA"/>
<path d="M71.8851 24.6213V28.5768H70.7333C68.4797 28.5768 67.0274 27.7256 66.4431 26.0733C65.1911 27.8591 63.2714 28.9607 60.951 28.9607C56.4939 28.9607 53.1552 25.3557 53.1552 20.5991C53.1552 15.8425 56.5106 12.2376 60.951 12.2376C63.1211 12.2376 64.9073 13.1722 66.1593 14.7076V12.6047H70.2325V23.2862C70.2325 24.1373 70.6999 24.638 71.5846 24.638H71.8851V24.6213ZM66.1426 20.5824C66.1426 18.079 64.2563 16.1596 61.7189 16.1596C59.2149 16.1596 57.3286 18.079 57.3286 20.5824C57.3286 23.0859 59.2149 25.0052 61.7189 25.0052C64.273 25.0052 66.1426 23.0859 66.1426 20.5824Z" fill="#474FEA"/>
<path d="M101.249 24.6213V28.5768H100.097C97.0585 28.5768 95.4894 27.0747 95.4894 24.154V19.3975C95.4894 17.4614 94.2708 16.1763 92.351 16.1763C90.3479 16.1763 88.9957 17.4948 88.9957 19.4642V28.5768H84.9225V19.3975C84.9225 17.4614 83.6705 16.1763 81.7842 16.1763C79.781 16.1763 78.3955 17.4948 78.3955 19.4642V28.5768H74.3223V12.6047H78.3955V14.4573C79.5473 12.9886 81.1832 12.2376 83.1197 12.2376C85.5068 12.2376 87.3264 13.3057 88.2612 15.1249C89.4798 13.2389 91.3328 12.2376 93.6865 12.2376C97.1921 12.2376 99.5458 14.5908 99.5458 18.1958V23.3028C99.5458 24.154 100.047 24.6547 100.898 24.6547H101.249V24.6213Z" fill="#474FEA"/>
<path d="M115.588 19.4308L111.765 28.5768H107.542L100.931 12.6047H105.572L109.745 23.5031L111.682 18.5797C112.567 16.1597 112.934 14.257 112.583 12.588H116.757C117.124 14.4072 116.757 16.6603 115.588 19.4308Z" fill="#474FEA"/>
<path d="M119.01 7.69797C119.01 6.26266 120.145 5.16113 121.581 5.16113C123.017 5.16113 124.152 6.26266 124.152 7.69797C124.152 9.13328 123.017 10.2348 121.581 10.2348C120.145 10.2348 119.01 9.14997 119.01 7.69797ZM119.544 12.588H123.618V28.5601H119.544V12.588Z" fill="#474FEA"/>
<path d="M145.386 24.6213V28.5768H144.234C141.98 28.5768 140.528 27.7256 139.944 26.0733C138.692 27.8591 136.772 28.9607 134.451 28.9607C129.994 28.9607 126.656 25.3557 126.656 20.5991C126.656 15.8425 130.011 12.2376 134.451 12.2376C136.622 12.2376 138.408 13.1722 139.66 14.7076V12.6047H143.733V23.2862C143.733 24.1373 144.2 24.638 145.085 24.638H145.386V24.6213ZM139.66 20.5824C139.66 18.079 137.773 16.1596 135.236 16.1596C132.732 16.1596 130.846 18.079 130.846 20.5824C130.846 23.0859 132.732 25.0052 135.236 25.0052C137.773 25.0052 139.66 23.0859 139.66 20.5824Z" fill="#474FEA"/>
<path d="M23.2075 8.89963C20.5199 8.89963 18.066 10.4851 16.981 12.9552L13.8426 20.0817C14.5938 20.6992 15.5453 21.0831 16.597 21.0831C17.2814 21.0831 17.9325 20.9162 18.5 20.6325L21.0875 14.7577C21.4547 13.9232 22.2894 13.3725 23.2075 13.3725H28.1154V8.88294H23.2075V8.89963Z" fill="#474FEA"/>
<path d="M23.5414 16.7939C23.5414 20.4322 20.7202 23.4197 17.1646 23.7034C16.9809 23.7201 16.7973 23.7368 16.597 23.7368C15.1781 23.7368 13.8593 23.3028 12.7575 22.5685C10.8879 21.3168 9.6526 19.1972 9.6526 16.7939H5.16211C5.16211 21.033 7.48247 24.7382 10.9213 26.7075L8.75116 31.6143L12.8577 33.4168L15.1948 28.1262C15.6455 28.1762 16.1129 28.2096 16.5803 28.2096C22.8737 28.2096 28.0152 23.0859 28.0152 16.7772H23.5414V16.7939Z" fill="#474FEA"/>
</svg>
