<svg width="420" height="265" viewBox="0 0 420 265" fill="none" xmlns="http://www.w3.org/2000/svg">
<g clip-path="url(#clip0_570_5873)">
<path d="M-207.321 129.498C-207.987 122.117 -202.534 115.595 -195.142 114.93C-187.749 114.265 -181.216 119.709 -180.55 127.09C-177.89 156.565 -169.373 177.414 -157.845 191.895C-146.368 206.31 -131.201 215.311 -113.603 219.967C-77.7925 229.441 -32.3646 220.685 6.9846 202.173L8.73071 201.342C45.335 183.71 78.0795 155.054 113.605 126C148.925 97.1143 186.86 68.0046 231.475 54.9695L232.561 54.658C255.322 48.283 275.621 51.2686 292.323 60.9315C305.651 68.6425 315.993 80.1912 323.532 93.187C336.977 90.5593 350.279 89.7027 361.999 90.6815L363.872 90.8536C402.976 94.7453 427.288 116.971 450.433 140.332C473.846 163.965 496.833 189.547 534.819 208.499L536.639 209.396L537.357 209.747L538.028 210.178C554.078 220.508 583.605 227.09 624.667 220.486C665.349 213.944 716.312 194.568 773.975 154.667C838.557 105.617 863.438 64.1261 872.684 22.3881C877.401 1.08952 878.198 -20.9342 877.448 -45.182C877.073 -57.3092 876.319 -69.8301 875.511 -83.0619C874.706 -96.2352 873.848 -110.079 873.298 -124.558C873.017 -131.963 878.802 -138.193 886.219 -138.474C893.636 -138.755 899.878 -132.98 900.159 -125.575C900.695 -111.459 901.532 -97.9291 902.34 -84.6967C903.146 -71.5227 903.925 -58.6049 904.315 -46.0102C905.094 -20.8146 904.344 3.74263 898.93 28.1827C887.924 77.8708 858.252 124.438 790 176.217L789.768 176.392L789.53 176.558C729.098 218.419 674.34 239.679 628.942 246.98C584.31 254.158 547.654 247.958 524.155 233.17C480.576 211.764 454.104 182.197 431.323 159.203C408.511 136.177 390.052 120.404 361.142 117.55L359.758 117.424C352.302 116.801 343.587 117.14 334.393 118.533C341.421 142.031 341.748 167.963 334.018 188.491C329.195 201.298 320.85 212.897 308.052 219.589C295.498 226.153 280.518 227.025 264.105 222.286L262.512 221.81C248.834 217.583 240.214 206.042 235.898 194.894C231.549 183.662 230.441 170.148 234.343 158.493L234.621 157.681C244.499 129.272 270.179 111.05 296.601 100.898C291.585 93.7997 285.599 88.0574 278.845 84.1498C268.782 78.3278 256.002 75.9573 239.799 80.5025L239.025 80.7247C200.269 92.0481 166.141 117.725 130.639 146.759C96.4477 174.722 60.678 206.116 20.3666 225.533L18.4438 226.448C-24.0561 246.442 -76.2755 257.603 -120.488 245.906C-142.902 239.976 -163.342 228.119 -178.887 208.591C-194.382 189.129 -204.303 162.949 -207.321 129.498ZM308.321 125.155C285.457 133.452 266.866 147.531 260.194 165.975L259.837 167C258.263 171.701 258.452 178.715 260.97 185.218C263.52 191.805 267.337 195.209 270.461 196.175L271.565 196.505C282.862 199.773 290.466 198.49 295.581 195.816C301.02 192.972 305.678 187.487 308.857 179.048C314.306 164.578 314.245 144.16 308.321 125.155Z" fill="url(#paint0_linear_570_5873)"/>
</g>
<defs>
<linearGradient id="paint0_linear_570_5873" x1="-230.464" y1="138.341" x2="770.601" y2="568.711" gradientUnits="userSpaceOnUse">
<stop offset="0.25" stop-color="#0DD7FF"/>
<stop offset="1" stop-color="#FFF443"/>
</linearGradient>
<clipPath id="clip0_570_5873">
<rect width="420" height="265" fill="white"/>
</clipPath>
</defs>
</svg>
