<svg width="970" height="370" viewBox="0 0 970 370" fill="none" xmlns="http://www.w3.org/2000/svg">
<g clip-path="url(#clip0_598_5518)">
<path d="M1023.94 -74.9505C1031.64 -85.736 1046.63 -88.2337 1057.42 -80.5296C1068.2 -72.8253 1070.7 -57.8358 1063 -47.0501C992.709 51.3508 917.075 159.035 802.098 221.857L799.375 223.333C698.553 277.505 591.635 296.606 478.781 286.367L476.114 286.12C367.577 275.837 264.94 236.243 166.709 201.353C67.9784 166.286 -26.8633 135.697 -125.896 137.043L-128.236 137.081C-201.81 138.454 -265.715 159.574 -337.949 185.161L-344.965 187.65C-357.455 192.087 -371.177 185.56 -375.615 173.07C-380.052 160.58 -373.524 146.857 -361.034 142.42L-354.048 139.94C-281.916 114.372 -211.265 90.6228 -129.132 89.0896L-126.564 89.0476C-17.9127 87.5719 84.3404 121.16 182.774 156.122C283.259 191.812 379.409 228.743 480.641 238.334L483.106 238.562C587.39 248.026 684.789 230.412 776.656 181.051L779.109 179.721C882.689 123.127 952.278 25.3717 1023.94 -74.9505Z" fill="#FF8A32"/>
<path d="M1.1438 364.474C-6.67454 374.826 -21.3677 377.109 -31.9753 369.512C-42.5828 361.915 -45.1507 347.269 -37.8669 336.534L-37.5125 336.026C12.8804 265.664 68.1636 186.982 152.507 141.02L154.505 139.94C228.313 100.388 306.583 86.474 388.99 93.93L390.937 94.1097C470.063 101.586 544.831 130.375 615.212 155.306C686.306 180.49 753.531 202.029 823.466 201.081L825.118 201.055C878.549 200.06 924.832 184.328 978.984 165.141C991.477 160.714 1005.19 167.254 1009.62 179.747C1014.05 192.241 1007.51 205.958 995.015 210.385C941.425 229.373 888.254 247.887 826.012 249.046L824.133 249.076C744.604 250.154 669.985 225.631 599.185 200.551C526.555 174.823 458.26 148.684 386.421 141.897L382.932 141.581C309.731 135.248 241.531 147.762 177.177 182.248L175.449 183.182C102.503 222.932 53.2723 291.703 1.51099 363.975L1.1438 364.474Z" fill="url(#paint0_linear_598_5518)"/>
</g>
<defs>
<linearGradient id="paint0_linear_598_5518" x1="1011.01" y1="374.002" x2="870.071" y2="-152.257" gradientUnits="userSpaceOnUse">
<stop offset="0.25" stop-color="#00BAE5"/>
<stop offset="1" stop-color="#FFE40D"/>
</linearGradient>
<clipPath id="clip0_598_5518">
<rect width="970" height="370" rx="8" fill="white"/>
</clipPath>
</defs>
</svg>
