<svg width="304" height="263" viewBox="0 0 304 263" fill="none" xmlns="http://www.w3.org/2000/svg">
<g clip-path="url(#clip0_598_5549)">
<path d="M396.115 -120.521C404.686 -122.667 413.375 -117.457 415.521 -108.885C417.667 -100.313 412.458 -91.6242 403.886 -89.4782C378.514 -83.1264 350.106 -63.9434 322.882 -39.7077C296.876 -16.5562 273.495 9.79136 256.897 29.9007L255.312 31.8275C240.611 49.7501 226.261 72.3437 215.39 96.4564C247.794 110.77 274.967 136.041 291.23 164.874L291.754 165.82C302.606 185.739 303.764 209.796 294.021 229.188C283.791 249.548 262.673 262.526 234.454 260.946L233.106 260.859C196.231 258.209 173.534 231.499 167.117 201.625L166.824 200.201C161.555 173.43 165.121 144.671 173.387 117.312C154.899 114.578 135.571 116.603 116.865 124.846L115.527 125.447C61.4686 150.169 23.3314 194.004 -4.86304 245.539C-32.2367 295.575 -49.7343 351.947 -63.2234 403.101L-64.5164 408.034C-66.7443 416.585 -75.4829 421.712 -84.0339 419.484C-92.5849 417.256 -97.711 408.517 -95.4832 399.966L-94.1746 394.972C-80.5034 343.115 -62.2106 283.689 -32.9373 230.181C-2.6573 174.833 39.9041 124.843 102.218 96.345L104.005 95.5423C131.307 83.5047 158.963 81.5308 184.719 86.682C196.985 58.5729 213.508 32.3343 230.571 11.5325L232.206 9.54427C249.354 -11.2314 273.905 -38.9499 301.605 -63.6091C329.819 -88.7263 363 -112.231 396.115 -120.521ZM204.063 126.423C196.789 150.436 194.24 173.789 198.222 194.02L198.406 194.917C202.417 213.683 215.435 227.507 235.4 228.942L236.191 228.992C252.677 229.941 261.343 222.95 265.427 214.822C269.997 205.725 269.995 192.775 263.663 181.148L263.358 180.595C250.172 157.217 228.899 137.655 204.063 126.423Z" fill="url(#paint0_linear_598_5549)"/>
</g>
<defs>
<linearGradient id="paint0_linear_598_5549" x1="3.00025" y1="328" x2="318.5" y2="40.0003" gradientUnits="userSpaceOnUse">
<stop offset="0.25" stop-color="#0DD7FF"/>
<stop offset="1" stop-color="#FFF443"/>
</linearGradient>
<clipPath id="clip0_598_5549">
<rect width="304" height="263" rx="8" fill="white"/>
</clipPath>
</defs>
</svg>
