<svg width="970" height="402" viewBox="0 0 970 402" fill="none" xmlns="http://www.w3.org/2000/svg">
<g clip-path="url(#clip0_598_5557)">
<path d="M833.479 -47.623C839.216 -59.2586 853.22 -64.2594 865.065 -58.788C876.91 -53.3167 882.181 -39.4128 877.042 -27.5019L876.789 -26.9355C853.779 22.8805 829.907 74.8782 802.679 121.865C775.883 168.105 745.029 210.96 706.973 243.113L705.156 244.637C637.968 300.463 565.215 321.054 487.943 310.218L486.117 309.956C412.972 299.24 344.229 258.103 281.701 223.76C217.329 188.403 158.972 159.775 99.1561 161.03L97.743 161.065C52.4471 162.373 12.7031 183.058 -36.4435 210.058L-36.9904 210.349C-48.5147 216.305 -62.7519 212.015 -69.0343 200.579C-75.4165 188.962 -71.172 174.37 -59.5548 167.988L-50.5939 163.075C-5.65768 138.526 41.3862 114.672 96.3582 113.085L98.118 113.041C172.597 111.475 241.689 147.02 304.809 181.689C370.778 217.922 430.577 253.307 493.075 262.463L494.567 262.677C557.704 271.542 617.069 255.42 674.48 207.718L676.01 206.436C708.06 179.353 735.645 141.808 761.147 97.7989C787.047 53.1045 809.969 3.25774 833.213 -47.0644L833.479 -47.623Z" fill="#EB0C69"/>
<path d="M-3.8562 384.474C-11.6745 394.826 -26.3677 397.109 -36.9753 389.512C-47.5828 381.915 -50.1507 367.269 -42.8669 356.534L-42.5125 356.026C7.88037 285.664 63.1636 206.982 147.507 161.02L149.505 159.94C223.313 120.388 301.583 106.474 383.99 113.93L385.937 114.11C465.063 121.586 539.831 150.375 610.212 175.306C681.306 200.49 748.531 222.029 818.466 221.081L820.118 221.055C873.549 220.06 919.832 204.328 973.984 185.141C986.477 180.714 1000.19 187.254 1004.62 199.747C1009.05 212.241 1002.51 225.958 990.015 230.385C936.425 249.373 883.254 267.887 821.012 269.046L819.133 269.076C739.604 270.154 664.985 245.631 594.185 220.551C521.555 194.823 453.26 168.684 381.421 161.897L377.932 161.581C304.731 155.248 236.531 167.762 172.177 202.248L170.449 203.182C97.5029 242.932 48.2723 311.703 -3.48901 383.975L-3.8562 384.474Z" fill="url(#paint0_linear_598_5557)"/>
</g>
<defs>
<linearGradient id="paint0_linear_598_5557" x1="1006.01" y1="394.002" x2="865.071" y2="-132.257" gradientUnits="userSpaceOnUse">
<stop offset="0.2" stop-color="#0DD7FF"/>
<stop offset="0.9" stop-color="#FF3293"/>
</linearGradient>
<clipPath id="clip0_598_5557">
<rect width="970" height="402" rx="8" fill="white"/>
</clipPath>
</defs>
</svg>
