<svg width="530" height="400" viewBox="0 0 530 400" fill="none" xmlns="http://www.w3.org/2000/svg">
<g clip-path="url(#clip0_581_5965)">
<path d="M37.8736 426.523C29.3 428.663 20.6158 423.447 18.4762 414.874C16.3365 406.3 21.552 397.616 30.1256 395.476C52.9465 389.781 78.6621 372.517 103.458 350.512C126.35 330.197 147.02 307.153 162.035 289.136L164.962 285.602C178.026 269.725 190.787 249.786 200.573 228.483C171.296 215.228 146.79 192.306 132.044 166.244L131.555 165.366C121.444 146.865 120.333 124.463 129.464 106.346C139.08 87.2678 158.899 75.2189 185.133 76.6822L186.387 76.7623C220.744 79.2235 241.901 104.068 247.872 131.771L248.144 133.092C252.907 157.212 249.851 183.012 242.612 207.567C258.757 209.668 275.557 207.736 291.815 200.594L293.017 200.056C341.988 177.731 376.589 138.128 402.219 91.4273C427.913 44.6101 444.058 -8.36853 456.519 -56.0463C458.754 -64.5957 467.496 -69.7153 476.045 -67.4809C484.595 -65.2464 489.714 -56.5039 487.48 -47.9545C474.87 0.292603 457.937 56.417 430.273 106.824C402.545 157.347 363.509 203.088 306.291 229.173L304.641 229.913C279.822 240.822 254.702 242.745 231.261 238.276C220.06 263.583 205.108 287.174 189.671 305.934L186.638 309.597C171.052 328.302 149.231 352.674 124.698 374.446C98.9063 397.334 68.4213 418.899 37.8736 426.523ZM211.921 198.508C218.152 177.374 220.238 156.954 216.751 139.292L216.587 138.501C213.042 121.96 201.61 109.935 184.101 108.68L183.402 108.635C168.844 107.798 161.484 113.914 158.04 120.749C154.11 128.545 154.056 139.807 159.626 150.002L159.895 150.486C171.544 171.074 190.164 188.333 211.921 198.508Z" fill="url(#paint0_linear_581_5965)"/>
<g filter="url(#filter0_d_581_5965)">
<rect x="41" y="294" width="232" height="65" rx="8" fill="white"/>
<path d="M82.0772 314.047C82.5579 314.047 82.7764 314.091 82.7109 314.157L82.4924 314.289C81.7932 314.774 81.3125 315.237 81.0722 315.7L80.9629 315.92L80.2419 317.705L75.2822 330.176C74.4957 332.027 73.7309 333.922 72.9881 335.861C73.3595 336.61 73.8839 337.205 74.5612 337.646L74.6704 337.756C74.6704 337.8 74.4738 337.822 74.1024 337.822H63.5712C63.0905 337.822 62.872 337.778 62.9376 337.712L63.0905 337.646C63.8115 337.139 64.4014 336.456 64.8166 335.597L59.0703 319.82C58.9173 319.423 58.7426 319.049 58.5678 318.74C58.3711 318.432 58.2182 318.19 58.0871 318.013C57.956 317.859 57.8468 317.705 57.7375 317.595C57.6283 317.484 57.5409 317.396 57.4972 317.352L57.3879 317.308C57.082 316.956 56.9509 316.669 57.0165 316.427C57.0602 316.273 57.1694 316.162 57.3224 316.096C57.4316 316.03 57.5409 315.964 57.6938 315.92C57.8467 315.876 58.0652 315.832 58.3493 315.766C58.6333 315.7 58.8518 315.656 59.0047 315.59C59.7476 315.413 60.4249 315.149 60.993 314.796C61.277 314.642 61.5392 314.466 61.8233 314.223C61.9325 314.113 62.0417 314.025 62.1947 313.915C62.2165 313.893 62.2602 313.849 62.3039 313.805C62.5006 313.628 62.6317 313.518 62.7191 313.474C62.7846 313.43 62.8939 313.364 63.0468 313.298C63.1779 313.232 63.2871 313.232 63.3308 313.298C63.5056 313.364 63.6367 313.584 63.7023 313.915C63.7241 313.981 63.746 314.091 63.746 314.223C63.7678 314.444 63.7897 314.796 63.7897 315.237C63.7897 315.678 63.7897 315.656 63.746 315.876L63.7897 315.986L70.5628 335.398L78.057 316.118C78.1007 315.942 78.1007 315.788 78.057 315.634V315.567C77.7293 315.061 77.2705 314.598 76.6587 314.201L76.615 314.157L76.4621 314.091C76.4621 314.025 76.6806 313.981 77.0957 313.981H82.0991L82.0772 314.047Z" fill="#1B2A39"/>
<path d="M98.6606 337.822C98.6825 337.844 98.6825 337.866 98.6606 337.888C98.6606 337.91 98.6387 337.932 98.5951 337.932H96.1043V337.976H92.2589C92.0622 337.976 91.8874 337.91 91.7782 337.778C91.6471 337.646 91.5815 337.491 91.5815 337.293V335.464C91.4286 335.685 91.2538 335.905 91.079 336.081C90.8824 336.28 90.7076 336.434 90.5546 336.566C90.4017 336.698 90.2269 336.83 90.074 336.919C89.921 337.007 89.8118 337.095 89.7462 337.139L89.5933 337.205C88.916 337.646 88.042 337.866 86.9496 337.91C85.879 337.954 85.0487 337.91 84.4806 337.8C83.9126 337.69 83.5193 337.58 83.2571 337.469C82.5579 337.249 81.9025 336.897 81.2907 336.412C80.3949 335.42 80.1545 334.319 80.5697 333.085C81.0066 331.851 81.9461 330.881 83.4319 330.176C84.0655 329.868 84.9832 329.515 86.2285 329.096C87.4739 328.678 88.326 328.369 88.763 328.171C89.8773 327.708 90.5765 327.091 90.9042 326.276C91.232 325.461 91.079 324.579 90.4454 323.61C90.2925 323.412 90.0958 323.213 89.8336 322.993C89.1782 322.53 88.479 322.288 87.7361 322.244C87.4302 322.222 87.1899 322.244 87.0151 322.31C86.6874 322.442 86.4252 322.618 86.2285 322.839C86.0756 323.015 85.9445 323.235 85.8134 323.522C85.6605 323.962 85.5731 324.403 85.5512 324.888C85.5512 325.042 85.5512 325.196 85.5949 325.373C85.5949 325.527 85.6386 325.659 85.7042 325.791C85.7479 325.857 85.8571 325.968 86.0319 326.1C86.2067 326.232 86.4252 326.32 86.6655 326.364C86.9059 326.408 87.0588 326.474 87.0807 326.563C87.2117 326.783 87.0588 327.113 86.6218 327.554C86.3815 327.796 86.0756 328.017 85.726 328.193C85.0268 328.59 84.3058 328.678 83.5411 328.457V328.413C82.7983 328.237 82.1209 327.774 81.5529 327.047C81.0722 326.408 80.81 325.791 80.7226 325.152C80.6789 324.8 80.6789 324.447 80.7663 324.095C80.8319 323.786 80.9629 323.5 81.1377 323.213C81.3781 322.751 81.7495 322.332 82.2302 321.913C82.9512 321.34 83.8033 320.878 84.7647 320.547C85.726 320.217 86.5126 320.04 87.1244 320.018L88.0202 319.974C88.5882 319.974 89.1563 320.018 89.6807 320.129C89.921 320.151 90.2051 320.195 90.4672 320.239L90.5109 320.283C90.9042 320.349 91.2975 320.459 91.6689 320.591C92.6303 320.922 93.4168 321.384 94.0286 321.957C94.6622 322.53 95.1211 323.279 95.4488 324.161C95.7765 325.042 95.9732 326.1 96.0169 327.312V335.244C96.0169 335.288 96.0169 335.354 96.0169 335.442C96.0169 335.53 96.0387 335.597 96.0824 335.641C96.1043 335.817 96.1698 335.971 96.2791 336.125C96.3883 336.302 96.5413 336.478 96.7597 336.654C96.8908 336.72 97.0438 336.808 97.2404 336.897C97.4371 336.985 97.6119 337.073 97.7866 337.183C98.1362 337.381 98.3984 337.558 98.5295 337.712L98.6606 337.822ZM81.3562 336.434V336.478C81.3781 336.5 81.3999 336.522 81.4218 336.522L81.3562 336.456V336.434ZM89.1126 335.068C90.074 334.583 90.7513 333.746 91.1883 332.556C91.6252 331.366 91.7345 330.044 91.5597 328.634C91.3194 328.788 90.8824 329.03 90.2925 329.383C89.7025 329.713 89.2437 330 88.8941 330.198C88.5664 330.396 88.195 330.639 87.7798 330.947C87.3865 331.234 87.0807 331.498 86.884 331.719C86.7092 331.895 86.5781 332.159 86.5126 332.468C86.3596 333.173 86.5126 333.812 86.9496 334.363C87.3865 334.913 87.9546 335.178 88.6538 335.156C88.8504 335.156 89.0034 335.134 89.1126 335.09V335.068Z" fill="#1B2A39"/>
<path d="M114.13 332.402C114.283 332.468 114.348 332.71 114.326 333.085C113.867 334.164 113.234 335.09 112.404 335.861C110.852 337.271 108.864 337.976 106.461 337.976C104.057 337.976 101.938 337.139 100.299 335.464C98.6388 333.79 97.8085 331.674 97.8085 329.096C97.8085 326.518 98.7917 323.985 100.736 322.266C102.266 320.9 104.167 320.195 106.461 320.173C106.745 320.173 107.072 320.173 107.444 320.217C107.815 320.239 108.536 320.415 109.563 320.723C110.612 321.032 111.508 321.495 112.251 322.112C112.36 322.178 112.447 322.266 112.535 322.354C112.622 322.442 112.709 322.53 112.775 322.596C112.841 322.662 112.928 322.751 112.972 322.839C113.037 322.927 113.081 322.993 113.125 323.037C113.168 323.081 113.19 323.147 113.234 323.191C113.278 323.235 113.299 323.279 113.299 323.301L113.343 323.346C113.496 323.654 113.605 323.962 113.671 324.249C113.736 324.601 113.758 324.954 113.715 325.307C113.649 325.946 113.387 326.563 112.928 327.157C112.36 327.907 111.683 328.391 110.94 328.568C110.284 328.744 109.651 328.722 109.061 328.502C108.558 328.303 108.121 327.995 107.772 327.598C107.4 327.202 107.269 326.893 107.378 326.695C107.422 326.629 107.575 326.563 107.815 326.518C108.056 326.474 108.274 326.386 108.471 326.232C108.624 326.122 108.711 326.034 108.777 325.924C108.842 325.791 108.908 325.659 108.93 325.505V325.02C108.93 324.69 108.886 324.359 108.777 324.007C108.667 323.676 108.514 323.346 108.296 323.015C108.078 322.707 107.815 322.486 107.509 322.398C107.182 322.288 106.81 322.332 106.417 322.464C105.172 323.191 104.188 324.205 103.511 325.461C102.965 326.452 102.637 327.62 102.572 328.942C102.419 331.19 102.921 333.063 104.079 334.517C104.756 335.398 105.477 335.971 106.22 336.213C107.072 336.5 108.143 336.39 109.454 335.905C110.787 335.398 111.923 334.539 112.884 333.327C113.452 332.534 113.889 332.225 114.173 332.335L114.13 332.402Z" fill="#1B2A39"/>
<path d="M133.269 337.822C133.291 337.844 133.291 337.866 133.269 337.888C133.269 337.91 133.247 337.932 133.204 337.932H130.713V337.976H126.868C126.671 337.976 126.496 337.91 126.387 337.778C126.256 337.646 126.19 337.491 126.19 337.293V335.464C126.037 335.685 125.863 335.905 125.688 336.081C125.491 336.28 125.316 336.434 125.163 336.566C125.01 336.698 124.836 336.83 124.683 336.919C124.53 337.007 124.421 337.095 124.355 337.139L124.202 337.205C123.525 337.646 122.651 337.866 121.558 337.91C120.488 337.954 119.657 337.91 119.089 337.8C118.521 337.69 118.128 337.58 117.866 337.469C117.167 337.249 116.511 336.897 115.899 336.412C115.004 335.42 114.763 334.319 115.178 333.085C115.615 331.851 116.555 330.881 118.041 330.176C118.674 329.868 119.592 329.515 120.837 329.096C122.083 328.678 122.935 328.369 123.372 328.171C124.486 327.708 125.185 327.091 125.513 326.276C125.841 325.461 125.688 324.579 125.054 323.61C124.901 323.412 124.705 323.213 124.442 322.993C123.787 322.53 123.088 322.288 122.345 322.244C122.039 322.222 121.799 322.244 121.624 322.31C121.296 322.442 121.034 322.618 120.837 322.839C120.684 323.015 120.553 323.235 120.422 323.522C120.269 323.962 120.182 324.403 120.16 324.888C120.16 325.042 120.16 325.196 120.204 325.373C120.204 325.527 120.247 325.659 120.313 325.791C120.357 325.857 120.466 325.968 120.641 326.1C120.815 326.232 121.034 326.32 121.274 326.364C121.515 326.408 121.668 326.474 121.689 326.563C121.82 326.783 121.668 327.113 121.231 327.554C120.99 327.796 120.684 328.017 120.335 328.193C119.636 328.59 118.915 328.678 118.15 328.457V328.413C117.407 328.237 116.73 327.774 116.162 327.047C115.681 326.408 115.419 325.791 115.331 325.152C115.288 324.8 115.288 324.447 115.375 324.095C115.441 323.786 115.572 323.5 115.746 323.213C115.987 322.751 116.358 322.332 116.839 321.913C117.56 321.34 118.412 320.878 119.373 320.547C120.335 320.217 121.121 320.04 121.733 320.018L122.629 319.974C123.197 319.974 123.765 320.018 124.289 320.129C124.53 320.151 124.814 320.195 125.076 320.239L125.12 320.283C125.513 320.349 125.906 320.459 126.278 320.591C127.239 320.922 128.026 321.384 128.637 321.957C129.271 322.53 129.73 323.279 130.058 324.161C130.385 325.042 130.582 326.1 130.626 327.312V335.244C130.626 335.288 130.626 335.354 130.626 335.442C130.626 335.53 130.647 335.597 130.691 335.641C130.713 335.817 130.779 335.971 130.888 336.125C130.997 336.302 131.15 336.478 131.368 336.654C131.5 336.72 131.653 336.808 131.849 336.897C132.046 336.985 132.221 337.073 132.395 337.183C132.745 337.381 133.007 337.558 133.138 337.712L133.269 337.822ZM115.965 336.434V336.478C115.987 336.5 116.009 336.522 116.031 336.522L115.965 336.456V336.434ZM123.721 335.068C124.683 334.583 125.36 333.746 125.797 332.556C126.234 331.366 126.343 330.044 126.168 328.634C125.928 328.788 125.491 329.03 124.901 329.383C124.311 329.713 123.852 330 123.503 330.198C123.175 330.396 122.804 330.639 122.389 330.947C121.995 331.234 121.689 331.498 121.493 331.719C121.318 331.895 121.187 332.159 121.121 332.468C120.968 333.173 121.121 333.812 121.558 334.363C121.995 334.913 122.563 335.178 123.263 335.156C123.459 335.156 123.612 335.134 123.721 335.09V335.068Z" fill="#1B2A39"/>
<path d="M146.597 331.873C146.75 331.939 146.816 332.181 146.816 332.556C146.379 333.525 145.832 334.363 145.133 335.068C144.412 335.949 143.495 336.632 142.359 337.117C141.244 337.602 140.064 337.822 138.797 337.756H138.382C137.705 337.756 137.071 337.646 136.459 337.425C135.848 337.205 135.345 336.875 134.908 336.434C134.777 336.302 134.668 336.191 134.58 336.059C133.947 335.266 133.619 334.297 133.575 333.129C133.532 332.402 133.51 331.608 133.51 330.749C133.488 329.691 133.488 328.303 133.51 326.607V320.768H132.111C131.893 320.768 131.696 320.701 131.543 320.547C131.39 320.393 131.325 320.217 131.325 319.974C131.325 319.732 131.412 319.49 131.609 319.313C131.805 319.115 132.024 319.027 132.264 319.027H133.51V318.454C133.379 317.088 132.985 315.986 132.308 315.149C132.264 315.105 132.199 315.039 132.111 314.951C132.046 314.862 131.98 314.796 131.937 314.752C131.893 314.708 131.849 314.642 131.805 314.554C131.762 314.488 131.718 314.422 131.718 314.356C131.718 314.312 131.696 314.245 131.653 314.157C131.631 314.091 131.631 314.025 131.653 313.959C131.674 313.893 131.718 313.805 131.784 313.739C131.849 313.673 131.937 313.606 132.068 313.562C132.199 313.518 132.308 313.496 132.417 313.452C132.526 313.408 132.701 313.364 132.92 313.32C133.138 313.276 133.335 313.232 133.488 313.21H133.532L133.575 313.166C134.253 312.989 134.864 312.747 135.389 312.439C135.673 312.262 135.935 312.064 136.219 311.866C136.328 311.8 136.416 311.712 136.525 311.601C136.547 311.579 136.59 311.535 136.678 311.491C136.831 311.337 136.94 311.249 137.006 311.183C137.071 311.139 137.18 311.073 137.311 311.006C137.442 310.94 137.53 310.94 137.617 311.006C137.77 311.073 137.879 311.271 137.945 311.579C137.967 311.645 137.989 311.734 137.989 311.844H138.032V318.983H140.807C141.048 319.005 141.288 319.027 141.528 319.049C141.812 319.071 142.096 319.159 142.424 319.313C142.643 319.379 142.861 319.468 143.058 319.578C143.254 319.644 143.451 319.754 143.648 319.886C143.844 320.018 143.975 320.129 144.041 320.217L144.194 320.327C144.369 320.503 144.522 320.701 144.653 320.944C144.696 321.054 144.762 321.164 144.806 321.274V321.34C144.849 321.495 144.893 321.627 144.915 321.759C144.98 322.266 144.915 322.817 144.653 323.39C144.369 324.095 143.953 324.601 143.407 324.91C142.927 325.196 142.424 325.307 141.9 325.24C141.616 325.218 141.353 325.13 141.069 325.02C140.785 324.888 140.567 324.756 140.414 324.601C140.261 324.447 140.174 324.315 140.217 324.227C140.217 324.183 140.217 324.139 140.261 324.117C140.283 324.117 140.37 324.073 140.545 323.985C140.698 323.896 140.851 323.786 140.982 323.632C141.091 323.5 141.135 323.412 141.179 323.324C141.201 323.213 141.201 323.103 141.179 322.993C141.157 322.839 141.135 322.707 141.113 322.574C140.807 321.583 140.479 321.01 140.108 320.834C140.086 320.834 140.064 320.834 140.043 320.79C139.977 320.768 139.911 320.746 139.846 320.723H138.076V332.071C138.185 333.68 138.906 334.715 140.261 335.134C140.567 335.156 140.895 335.156 141.244 335.134C141.965 335.09 142.621 334.936 143.167 334.715C143.451 334.583 143.713 334.429 143.953 334.252C144.5 333.856 145.002 333.371 145.417 332.82C145.964 332.027 146.379 331.719 146.663 331.829L146.597 331.873Z" fill="#1B2A39"/>
<path d="M154.528 337.822C154.55 337.844 154.55 337.866 154.528 337.888C154.528 337.91 154.507 337.932 154.463 337.932H146.422C146.401 337.932 146.379 337.932 146.357 337.888C146.357 337.866 146.357 337.844 146.357 337.822C146.357 337.8 146.488 337.734 146.663 337.624C146.838 337.513 146.99 337.425 147.122 337.359C147.624 336.985 147.952 336.522 148.127 335.993V327.047C147.996 325.681 147.602 324.579 146.925 323.742C146.903 323.676 146.838 323.588 146.728 323.478C146.619 323.368 146.554 323.301 146.532 323.257C146.488 323.213 146.444 323.125 146.379 323.037C146.313 322.927 146.291 322.861 146.313 322.817C146.313 322.773 146.313 322.685 146.313 322.596C146.335 322.486 146.379 322.42 146.444 322.354C146.51 322.288 146.597 322.244 146.75 322.2C146.881 322.156 147.012 322.134 147.1 322.09C147.209 322.046 147.362 322.001 147.58 321.957C147.799 321.913 147.996 321.869 148.148 321.847H148.192L148.258 321.803C148.913 321.627 149.503 321.384 150.071 321.076C150.312 320.9 150.596 320.701 150.858 320.503C150.967 320.437 151.054 320.349 151.164 320.239H151.207L151.317 320.129C151.775 319.754 152.081 319.6 152.256 319.666C152.431 319.732 152.54 319.93 152.584 320.239C152.606 320.305 152.628 320.393 152.628 320.503H152.671V321.252V321.032V321.671V321.252V335.773C152.693 335.839 152.715 335.905 152.737 335.971C152.912 336.522 153.261 336.985 153.742 337.381C153.873 337.447 154.026 337.536 154.201 337.646C154.375 337.756 154.485 337.8 154.507 337.844L154.528 337.822ZM148.498 319.247L147.755 318.498C147.515 318.256 147.384 317.925 147.384 317.573C147.384 317.22 147.515 316.89 147.755 316.647L148.498 315.898C148.738 315.656 149.066 315.523 149.416 315.523C149.765 315.523 150.093 315.656 150.333 315.898L151.076 316.647C151.317 316.89 151.448 317.22 151.448 317.573C151.448 317.925 151.317 318.256 151.076 318.498L150.333 319.247C150.093 319.49 149.765 319.622 149.416 319.622C149.066 319.622 148.738 319.49 148.498 319.247Z" fill="#1B2A39"/>
<path d="M193.07 332.049V329.427C193.004 326.827 192.502 324.954 191.606 323.852C191.213 323.39 190.798 323.147 190.404 323.103C189.683 322.993 188.984 323.412 188.329 324.359V335.552C188.351 335.619 188.372 335.685 188.394 335.751C188.569 336.302 188.919 336.764 189.399 337.161C189.53 337.227 189.683 337.315 189.858 337.425C190.033 337.536 190.142 337.58 190.164 337.624C190.186 337.646 190.186 337.668 190.164 337.69C190.164 337.712 190.142 337.734 190.098 337.734H182.058C182.036 337.734 182.014 337.734 181.993 337.69C181.993 337.668 181.993 337.646 181.993 337.624C181.993 337.602 182.124 337.536 182.298 337.425C182.473 337.315 182.626 337.227 182.757 337.161C183.26 336.786 183.587 336.324 183.762 335.795V326.585C183.631 325.218 183.238 324.117 182.561 323.279C182.539 323.213 182.473 323.125 182.364 323.015C182.255 322.905 182.189 322.839 182.167 322.795C182.124 322.751 182.08 322.662 182.014 322.574C181.949 322.464 181.927 322.398 181.949 322.354C181.949 322.31 181.949 322.222 181.949 322.134C181.971 322.023 182.014 321.957 182.08 321.891C182.145 321.825 182.233 321.781 182.386 321.715C182.517 321.671 182.648 321.627 182.735 321.605C182.845 321.583 182.998 321.539 183.216 321.495C183.435 321.451 183.631 321.407 183.784 321.384H183.828C183.828 321.362 183.85 321.34 183.893 321.34C184.549 321.164 185.139 320.922 185.707 320.613C185.947 320.437 186.231 320.239 186.493 320.04C186.603 319.974 186.69 319.886 186.799 319.776H186.843C186.865 319.754 186.909 319.71 186.952 319.666C187.411 319.291 187.717 319.137 187.892 319.203C188.067 319.269 188.176 319.468 188.219 319.776C188.241 319.842 188.263 319.93 188.263 320.04H188.307V320.79V320.525V321.164V320.79V321.781C188.329 321.803 188.351 321.825 188.351 321.847C188.351 321.869 188.351 321.869 188.394 321.913C189.246 321.054 190.208 320.481 191.3 320.195C192.371 319.908 193.398 319.952 194.337 320.327C195.342 320.701 196.151 321.407 196.784 322.442C197.309 323.5 197.571 324.557 197.571 325.637V335.619C197.593 335.685 197.615 335.751 197.636 335.817C197.811 336.368 198.161 336.83 198.641 337.227C198.773 337.293 198.925 337.381 199.1 337.491C199.275 337.602 199.384 337.646 199.406 337.69H191.497C191.541 337.624 191.606 337.536 191.65 337.469C191.781 337.403 191.89 337.315 192.021 337.249C192.524 336.875 192.851 336.412 193.026 335.883V332.159L193.07 332.049Z" fill="#1B2A39"/>
<path d="M219.398 330.529C219.966 331.234 220.272 332.137 220.272 333.217C220.294 333.768 220.206 334.363 219.966 334.958C219.813 335.332 219.66 335.663 219.485 335.905C219.354 336.081 219.158 336.324 218.852 336.632C218.48 336.985 217.978 337.271 217.388 337.469C217.322 337.491 217.169 337.536 216.973 337.624C216.645 337.69 216.186 337.778 215.618 337.844H200.979C200.499 337.844 200.28 337.8 200.346 337.734L200.455 337.668C200.979 337.315 201.416 336.875 201.766 336.324C202.115 335.773 202.334 335.354 202.421 335.068C202.509 334.781 202.574 334.517 202.596 334.297V321.935C202.552 320.151 202.115 318.718 201.307 317.683C201.263 317.639 201.176 317.551 201.089 317.44C200.979 317.33 200.914 317.242 200.892 317.198C200.848 317.154 200.804 317.066 200.717 316.956C200.652 316.845 200.608 316.757 200.63 316.713C200.63 316.669 200.63 316.581 200.63 316.493C200.652 316.383 200.695 316.295 200.761 316.229C200.826 316.162 200.914 316.096 201.067 316.03C201.198 315.986 201.329 315.942 201.46 315.92C201.591 315.898 201.766 315.854 202.006 315.81C202.247 315.766 202.443 315.7 202.596 315.656C203.208 315.501 203.732 315.325 204.213 315.083C204.366 315.017 204.497 314.928 204.584 314.862C204.956 314.642 205.371 314.334 205.786 313.981L205.83 313.937C206.376 313.452 206.747 313.276 206.922 313.364C207.097 313.43 207.228 313.628 207.294 313.937V314.003C207.337 314.245 207.359 314.686 207.359 315.303V335.332H213.258C214.11 335.178 214.657 335.002 214.919 334.759C215.29 334.429 215.509 333.966 215.553 333.393C215.553 333.195 215.509 332.996 215.4 332.82C215.334 332.666 215.225 332.534 215.094 332.402C214.81 332.093 214.416 331.917 213.892 331.851C213.368 331.785 213.062 331.696 212.996 331.564C212.931 331.366 212.996 331.102 213.193 330.793C213.411 330.485 213.739 330.176 214.198 329.868C214.657 329.559 215.116 329.339 215.596 329.229C216.383 329.074 217.148 329.163 217.934 329.493C218.502 329.735 219.005 330.11 219.398 330.551V330.529Z" fill="#1B2A39"/>
<path d="M238.778 337.822C238.8 337.844 238.8 337.866 238.778 337.888C238.778 337.91 238.756 337.932 238.712 337.932H236.222V337.976H232.376C232.18 337.976 232.005 337.91 231.896 337.778C231.764 337.646 231.699 337.491 231.699 337.293V335.464C231.546 335.685 231.371 335.905 231.196 336.081C231 336.28 230.825 336.434 230.672 336.566C230.519 336.698 230.344 336.83 230.191 336.919C230.038 337.007 229.929 337.095 229.864 337.139L229.711 337.205C229.033 337.646 228.159 337.866 227.067 337.91C225.996 337.954 225.166 337.91 224.598 337.8C224.03 337.69 223.637 337.58 223.374 337.469C222.675 337.249 222.02 336.897 221.408 336.412C220.512 335.42 220.272 334.319 220.687 333.085C221.124 331.851 222.064 330.881 223.549 330.176C224.183 329.868 225.101 329.515 226.346 329.096C227.591 328.678 228.443 328.369 228.88 328.171C229.995 327.708 230.694 327.091 231.022 326.276C231.349 325.461 231.196 324.579 230.563 323.61C230.41 323.412 230.213 323.213 229.951 322.993C229.296 322.53 228.596 322.288 227.853 322.244C227.548 322.222 227.307 322.244 227.132 322.31C226.805 322.442 226.543 322.618 226.346 322.839C226.193 323.015 226.062 323.235 225.931 323.522C225.778 323.962 225.69 324.403 225.669 324.888C225.669 325.042 225.669 325.196 225.712 325.373C225.712 325.527 225.756 325.659 225.822 325.791C225.865 325.857 225.974 325.968 226.149 326.1C226.324 326.232 226.543 326.32 226.783 326.364C227.023 326.408 227.176 326.474 227.198 326.563C227.329 326.783 227.176 327.113 226.739 327.554C226.499 327.796 226.193 328.017 225.843 328.193C225.144 328.59 224.423 328.678 223.658 328.457V328.413C222.916 328.237 222.238 327.774 221.67 327.047C221.19 326.408 220.927 325.791 220.84 325.152C220.796 324.8 220.796 324.447 220.884 324.095C220.949 323.786 221.08 323.5 221.255 323.213C221.495 322.751 221.867 322.332 222.348 321.913C223.069 321.34 223.921 320.878 224.882 320.547C225.843 320.217 226.63 320.04 227.242 320.018L228.138 319.974C228.706 319.974 229.274 320.018 229.798 320.129C230.038 320.151 230.322 320.195 230.585 320.239L230.628 320.283C231.022 320.349 231.415 320.459 231.786 320.591C232.748 320.922 233.534 321.384 234.146 321.957C234.78 322.53 235.238 323.279 235.566 324.161C235.894 325.042 236.091 326.1 236.134 327.312V335.244C236.134 335.288 236.134 335.354 236.134 335.442C236.134 335.53 236.156 335.597 236.2 335.641C236.222 335.817 236.287 335.971 236.396 336.125C236.506 336.302 236.659 336.478 236.877 336.654C237.008 336.72 237.161 336.808 237.358 336.897C237.554 336.985 237.729 337.073 237.904 337.183C238.254 337.381 238.516 337.558 238.647 337.712L238.778 337.822ZM221.474 336.412V336.456C221.495 336.478 221.517 336.5 221.539 336.5L221.474 336.434V336.412ZM229.208 335.046C230.169 334.561 230.847 333.724 231.284 332.534C231.721 331.344 231.83 330.022 231.655 328.612C231.415 328.766 230.978 329.008 230.388 329.361C229.798 329.691 229.339 329.978 228.99 330.176C228.662 330.374 228.29 330.617 227.875 330.925C227.482 331.212 227.176 331.476 226.98 331.696C226.805 331.873 226.674 332.137 226.608 332.446C226.455 333.151 226.608 333.79 227.045 334.341C227.482 334.891 228.05 335.156 228.749 335.134C228.946 335.134 229.099 335.112 229.208 335.068V335.046Z" fill="#1B2A39"/>
<path d="M255.427 324.051C256.476 325.703 257 327.378 257 329.096C257 330.815 256.476 332.49 255.449 334.142C252.849 338.219 249.484 338.99 245.398 336.456V337.932H239.04C239.018 337.932 238.996 337.932 238.975 337.888C238.975 337.866 238.975 337.844 238.975 337.822C239.018 337.8 239.128 337.734 239.302 337.624C239.477 337.513 239.63 337.425 239.761 337.359C240.286 336.985 240.635 336.522 240.81 335.949C240.832 335.905 240.854 335.839 240.875 335.751V317.396C240.744 316.03 240.351 314.928 239.674 314.091C239.63 314.025 239.565 313.937 239.477 313.827C239.39 313.717 239.324 313.651 239.28 313.606C239.237 313.562 239.193 313.474 239.128 313.386C239.062 313.276 239.04 313.21 239.04 313.166V312.945C239.062 312.835 239.106 312.769 239.171 312.703C239.237 312.637 239.324 312.593 239.455 312.527C239.586 312.483 239.696 312.439 239.805 312.417C239.914 312.395 240.089 312.35 240.307 312.306C240.526 312.262 240.723 312.218 240.875 312.196H240.919L240.963 312.152H241.007C241.662 311.976 242.252 311.734 242.776 311.425C243.06 311.249 243.323 311.05 243.607 310.852C243.716 310.786 243.803 310.698 243.912 310.588H243.956C243.978 310.566 244.022 310.522 244.065 310.478C244.524 310.103 244.83 309.949 245.005 310.015C245.158 310.081 245.267 310.279 245.333 310.588C245.355 310.654 245.376 310.742 245.376 310.852H245.42V311.601V311.337V311.976V311.601V322.001C246.425 320.9 247.583 320.305 248.894 320.217C250.205 320.151 251.429 320.459 252.565 321.164C253.701 321.869 254.64 322.839 255.427 324.051ZM250.817 334.517C251.188 333.988 251.472 333.305 251.625 332.468C251.778 331.63 251.844 330.771 251.778 329.868C251.713 328.964 251.581 328.083 251.341 327.202C251.101 326.32 250.795 325.527 250.358 324.822C249.921 324.095 249.462 323.544 248.938 323.125C248.61 322.905 248.239 322.729 247.78 322.64C247.343 322.53 246.949 322.552 246.622 322.685C246.447 322.751 246.272 322.905 246.119 323.125C245.966 323.346 245.813 323.588 245.726 323.874C245.617 324.161 245.573 324.425 245.529 324.668L245.42 329.978C245.42 331.388 245.639 332.644 246.097 333.724C246.316 334.23 246.578 334.649 246.884 334.98C247.408 335.53 247.955 335.839 248.501 335.883C248.828 335.905 249.156 335.817 249.506 335.641C249.855 335.442 250.118 335.266 250.314 335.068C250.511 334.869 250.664 334.693 250.795 334.517H250.817Z" fill="#1B2A39"/>
<path fill-rule="evenodd" clip-rule="evenodd" d="M162.631 317.281C162.391 317.218 162.155 317.161 161.923 317.11C160.419 316.778 159.036 316.679 157.881 316.866C156.725 317.052 155.731 317.54 155.133 318.441C154.535 319.342 154.466 320.455 154.735 321.604C155.004 322.752 155.623 324.004 156.5 325.279C157.091 326.139 157.809 327.023 158.637 327.91C157.814 328.926 157.116 329.931 156.559 330.896C155.785 332.238 155.268 333.534 155.091 334.699C154.914 335.865 155.071 336.968 155.742 337.816L155.744 337.817L155.745 337.819C156.52 338.786 157.77 339.172 159.171 339.172C160.387 339.172 161.796 338.885 163.304 338.356C163.844 339.667 164.49 340.772 165.23 341.574C166.026 342.439 166.98 343 168.053 343C169.13 343 170.087 342.44 170.885 341.575C171.682 340.711 172.369 339.497 172.932 338.053C173.031 337.797 173.128 337.532 173.22 337.26C173.806 337.444 174.375 337.597 174.924 337.718C176.428 338.049 177.81 338.149 178.965 337.962C180.121 337.775 181.115 337.287 181.713 336.386C182.312 335.485 182.38 334.373 182.111 333.223C181.842 332.075 181.224 330.824 180.346 329.548C179.015 327.611 177.04 325.55 174.607 323.617C174.454 321.76 174.174 320.017 173.787 318.453C174.67 318.15 175.499 317.94 176.253 317.83L176.065 316.522C175.248 316.641 174.365 316.862 173.437 317.177C173.278 316.655 173.106 316.158 172.923 315.689C172.359 314.244 171.672 313.031 170.876 312.168C170.08 311.303 169.126 310.742 168.053 310.742C166.975 310.742 166.019 311.302 165.221 312.167C164.423 313.031 163.737 314.245 163.174 315.689C162.979 316.189 162.798 316.721 162.631 317.281ZM163.547 318.93C163.208 320.347 162.956 321.926 162.813 323.617C163.238 323.246 163.677 322.88 164.128 322.519L164.129 322.518C165.105 321.741 166.092 321.028 167.074 320.385C165.851 319.785 164.664 319.298 163.547 318.93ZM162.288 318.557C161.83 320.452 161.526 322.602 161.415 324.898C160.727 325.56 160.085 326.23 159.493 326.898C158.749 326.092 158.106 325.295 157.577 324.526C156.755 323.33 156.23 322.232 156.011 321.3C155.793 320.37 155.894 319.671 156.222 319.177C156.55 318.682 157.152 318.322 158.089 318.171C159.026 318.019 160.233 318.091 161.643 318.402C161.854 318.448 162.069 318.5 162.288 318.557ZM163.889 317.652C165.314 318.117 166.831 318.76 168.382 319.567C169.691 318.788 170.979 318.14 172.206 317.638C172.05 317.121 171.882 316.632 171.704 316.173C171.175 314.819 170.562 313.769 169.916 313.068C169.271 312.367 168.64 312.064 168.053 312.064C167.459 312.064 166.826 312.369 166.18 313.068C165.533 313.769 164.921 314.819 164.394 316.173C164.214 316.635 164.045 317.129 163.889 317.652ZM168.425 321.086C167.276 321.804 166.105 322.63 164.942 323.556C164.15 324.189 163.402 324.837 162.702 325.491C162.686 325.945 162.678 326.406 162.678 326.871C162.678 327.936 162.721 328.974 162.802 329.973C163.622 330.637 164.501 331.289 165.433 331.918C167.809 333.522 170.194 334.753 172.365 335.568C173.031 333.126 173.428 330.128 173.428 326.871C173.428 325.994 173.399 325.135 173.343 324.301C172.729 323.828 172.085 323.363 171.413 322.91C170.413 322.234 169.411 321.625 168.425 321.086ZM173.183 322.538C172.843 322.292 172.496 322.05 172.142 321.811C171.341 321.27 170.536 320.768 169.735 320.308C170.704 319.763 171.65 319.3 172.552 318.924C172.82 320.036 173.034 321.249 173.183 322.538ZM174.712 325.409C174.73 325.891 174.739 326.378 174.739 326.871C174.739 330.253 174.325 333.402 173.608 335.997C174.159 336.17 174.692 336.313 175.204 336.426C176.613 336.737 177.82 336.808 178.758 336.657C179.694 336.505 180.296 336.145 180.624 335.651C180.952 335.156 181.053 334.458 180.835 333.527C180.617 332.595 180.091 331.497 179.269 330.302C178.19 328.733 176.636 327.046 174.712 325.409ZM171.979 336.834C169.675 335.976 167.173 334.684 164.704 333.017C164.115 332.619 163.546 332.212 162.997 331.798C163.292 334.008 163.78 335.975 164.402 337.569C164.931 338.923 165.543 339.973 166.19 340.674C166.835 341.375 167.466 341.678 168.053 341.678C168.647 341.678 169.28 341.373 169.926 340.674C170.572 339.973 171.184 338.923 171.712 337.569C171.804 337.332 171.893 337.087 171.979 336.834ZM161.412 328.787C161.382 328.158 161.367 327.519 161.367 326.871L161.367 326.807C161.034 327.154 160.716 327.5 160.412 327.846C160.731 328.16 161.065 328.474 161.412 328.787ZM159.563 328.857C160.177 329.458 160.84 330.056 161.545 330.646C161.777 333.059 162.228 335.264 162.845 337.117C161.442 337.606 160.193 337.85 159.171 337.85C157.974 337.85 157.192 337.52 156.765 336.989C156.4 336.526 156.244 335.842 156.387 334.899C156.53 333.954 156.967 332.819 157.692 331.561C158.192 330.694 158.82 329.784 159.563 328.857Z" fill="#F66867"/>
<path d="M183.282 315.017C183.325 315.215 183.172 315.369 183.019 315.479C182.473 315.942 181.512 316.118 180.856 316.317C180.201 316.515 180.638 316.317 180.551 316.449C180.463 316.581 180.332 317.132 180.266 317.33C180.026 318.101 179.786 318.873 179.545 319.644C179.305 320.415 179.283 320.657 178.606 320.591C177.929 320.525 178.387 320.525 178.344 320.415C178.3 320.305 178.344 320.04 178.344 319.93C178.387 319.137 178.519 318.322 178.475 317.529C178.475 317.396 178.475 317.198 178.431 317.066C178.387 316.934 178.431 317.044 178.409 317.022L176.355 317.506C176.268 317.815 176.29 318.256 176.071 318.498C175.853 318.74 175.678 318.718 175.503 318.586C175.329 318.454 175.503 318.542 175.503 318.542C175.503 318.52 175.46 318.52 175.438 318.476C175.394 318.41 175.329 318.057 175.307 317.947C175.154 317.33 174.979 316.647 174.848 316.03C174.826 315.898 174.913 315.832 175.023 315.788C175.132 315.744 175.307 315.7 175.372 315.7C175.438 315.7 175.482 315.7 175.525 315.744C175.569 315.788 175.678 315.876 175.7 315.92C175.722 315.964 175.722 315.986 175.766 316.03C175.853 316.14 175.962 316.317 176.05 316.405C176.137 316.493 176.071 316.449 176.115 316.449L178.082 315.766V315.501C177.688 314.554 177.011 313.739 176.574 312.835C176.574 312.659 176.705 312.549 176.858 312.483C177.011 312.417 177.011 312.417 177.077 312.395C177.339 312.306 177.47 312.373 177.666 312.549C178.016 312.857 178.409 313.298 178.759 313.651C179.174 314.069 179.611 314.598 180.048 314.973C180.485 315.347 180.419 315.105 180.703 315.039C181.293 314.862 182.342 314.466 182.932 314.642C183.522 314.818 183.238 314.796 183.282 314.973V315.017Z" fill="#1B2A39"/>
<path d="M168.708 323.566L169.167 323.61C170.981 323.896 172.423 325.417 172.641 327.246V327.554C172.663 327.554 172.663 328.017 172.663 328.017L172.619 328.369C172.379 330.22 170.871 331.719 169.036 331.961L168.599 332.005H168.315L167.878 331.961C165.846 331.652 164.426 330.066 164.273 328.017C164.12 325.968 164.273 327.929 164.273 327.907C164.273 327.818 164.273 327.73 164.273 327.642C164.382 325.461 166.043 323.654 168.25 323.544H168.708V323.566ZM165.671 325.527H166.48C166.633 325.196 166.829 324.91 167.07 324.624L167.31 324.359C166.698 324.557 166.108 324.954 165.715 325.461C165.322 325.968 165.671 325.527 165.671 325.527ZM171.287 325.527C170.871 324.998 170.281 324.579 169.648 324.359L169.866 324.601C170.107 324.888 170.303 325.196 170.478 325.527H171.287ZM168.184 325.527V324.403C167.922 324.601 167.681 324.844 167.463 325.086C167.244 325.329 167.244 325.373 167.179 325.527H168.184ZM169.801 325.527C169.539 325.086 169.189 324.69 168.796 324.403V325.527H169.801ZM166.239 326.122H165.278C165.06 326.54 164.928 327.003 164.885 327.488H165.999C166.021 327.025 166.108 326.563 166.239 326.122ZM168.184 326.122H166.873C166.72 326.563 166.611 327.025 166.589 327.488H168.184V326.122ZM170.369 327.488C170.347 327.113 170.281 326.739 170.172 326.386C170.063 326.034 170.107 326.21 170.085 326.122H168.796V327.488H170.391H170.369ZM172.051 327.488C172.029 327.003 171.876 326.54 171.658 326.122H170.697C170.828 326.563 170.915 327.025 170.937 327.488H172.051ZM165.999 328.083H164.885C164.928 328.568 165.06 329.03 165.278 329.449H166.239C166.086 329.008 166.021 328.546 165.999 328.083ZM168.184 328.083H166.589C166.589 328.546 166.698 329.008 166.873 329.449H168.184V328.083ZM170.369 328.083H168.774V329.449H170.063C170.107 329.383 170.129 329.295 170.15 329.207C170.26 328.832 170.325 328.457 170.347 328.061L170.369 328.083ZM172.051 328.083H170.937C170.937 328.413 170.871 328.744 170.806 329.074C170.74 329.405 170.74 329.317 170.697 329.449H171.658C171.876 329.03 172.008 328.546 172.051 328.083ZM166.502 330.044H165.693C165.693 330.044 165.715 330.088 165.737 330.11C166.108 330.551 166.633 330.947 167.157 331.168C167.681 331.388 167.288 331.234 167.332 331.234C167.004 330.903 166.72 330.507 166.502 330.066V330.044ZM168.184 330.044H167.179C167.223 330.154 167.288 330.242 167.354 330.33C167.572 330.617 167.813 330.903 168.097 331.124C168.381 331.344 168.14 331.168 168.184 331.168V330.044ZM169.801 330.044H168.796V331.168C169.167 330.903 169.495 330.551 169.735 330.154C169.976 329.757 169.801 330.044 169.801 330.022V330.044ZM171.287 330.044H170.478C170.325 330.33 170.15 330.617 169.954 330.881L169.648 331.234C170.281 331.013 170.871 330.595 171.287 330.066V330.044Z" fill="#F66867"/>
</g>
<g filter="url(#filter1_d_581_5965)">
<rect x="334" y="45" width="183" height="72" rx="8" fill="white"/>
<path d="M398.281 72.7869V73.6047H401.987V77.3265H398.281V90.0441C398.281 93.6157 396.211 95.535 392.271 95.535H391.136V91.8132H391.887C393.356 91.8132 394.208 90.9954 394.208 89.5935V77.3432H391.704V73.6214H394.208V72.3363C394.208 68.7647 396.311 66.8454 400.217 66.8454H401.97V70.5672H400.635C399.166 70.5505 398.281 71.3683 398.281 72.7869Z" fill="#474FEA"/>
<path d="M421.885 85.6213V89.5768H420.733C418.48 89.5768 417.027 88.7256 416.443 87.0733C415.191 88.8591 413.271 89.9607 410.951 89.9607C406.494 89.9607 403.155 86.3557 403.155 81.5991C403.155 76.8425 406.511 73.2376 410.951 73.2376C413.121 73.2376 414.907 74.1722 416.159 75.7076V73.6047H420.232V84.2862C420.232 85.1373 420.7 85.638 421.585 85.638H421.885V85.6213ZM416.143 81.5824C416.143 79.079 414.256 77.1597 411.719 77.1597C409.215 77.1597 407.329 79.079 407.329 81.5824C407.329 84.0859 409.215 86.0052 411.719 86.0052C414.273 86.0052 416.143 84.0859 416.143 81.5824Z" fill="#474FEA"/>
<path d="M451.249 85.6213V89.5768H450.097C447.059 89.5768 445.489 88.0747 445.489 85.154V80.3975C445.489 78.4614 444.271 77.1763 442.351 77.1763C440.348 77.1763 438.996 78.4948 438.996 80.4642V89.5768H434.923V80.3975C434.923 78.4614 433.671 77.1763 431.784 77.1763C429.781 77.1763 428.395 78.4948 428.395 80.4642V89.5768H424.322V73.6047H428.395V75.4573C429.547 73.9886 431.183 73.2376 433.12 73.2376C435.507 73.2376 437.326 74.3057 438.261 76.1249C439.48 74.239 441.333 73.2376 443.687 73.2376C447.192 73.2376 449.546 75.5908 449.546 79.1958V84.3028C449.546 85.154 450.047 85.6547 450.898 85.6547H451.249V85.6213Z" fill="#474FEA"/>
<path d="M465.588 80.4308L461.765 89.5768H457.542L450.931 73.6047H455.572L459.745 84.5031L461.682 79.5797C462.567 77.1597 462.934 75.257 462.583 73.588H466.757C467.124 75.4072 466.757 77.6603 465.588 80.4308Z" fill="#474FEA"/>
<path d="M469.01 68.698C469.01 67.2627 470.145 66.1611 471.581 66.1611C473.017 66.1611 474.152 67.2627 474.152 68.698C474.152 70.1333 473.017 71.2348 471.581 71.2348C470.145 71.2348 469.01 70.15 469.01 68.698ZM469.544 73.588H473.618V89.5601H469.544V73.588Z" fill="#474FEA"/>
<path d="M495.386 85.6213V89.5768H494.234C491.98 89.5768 490.528 88.7256 489.944 87.0733C488.692 88.8591 486.772 89.9607 484.451 89.9607C479.994 89.9607 476.656 86.3557 476.656 81.5991C476.656 76.8425 480.011 73.2376 484.451 73.2376C486.622 73.2376 488.408 74.1722 489.66 75.7076V73.6047H493.733V84.2862C493.733 85.1373 494.2 85.638 495.085 85.638H495.386V85.6213ZM489.66 81.5824C489.66 79.079 487.773 77.1597 485.236 77.1597C482.732 77.1597 480.846 79.079 480.846 81.5824C480.846 84.0859 482.732 86.0052 485.236 86.0052C487.773 86.0052 489.66 84.0859 489.66 81.5824Z" fill="#474FEA"/>
<path d="M373.208 69.8996C370.52 69.8996 368.066 71.4851 366.981 73.9552L363.843 81.0817C364.594 81.6992 365.545 82.0831 366.597 82.0831C367.281 82.0831 367.932 81.9162 368.5 81.6325L371.087 75.7577C371.455 74.9232 372.289 74.3725 373.208 74.3725H378.115V69.8829H373.208V69.8996Z" fill="#474FEA"/>
<path d="M373.541 77.7939C373.541 81.4322 370.72 84.4197 367.165 84.7034C366.981 84.7201 366.797 84.7368 366.597 84.7368C365.178 84.7368 363.859 84.3028 362.758 83.5685C360.888 82.3168 359.653 80.1972 359.653 77.7939H355.162C355.162 82.033 357.482 85.7382 360.921 87.7075L358.751 92.6143L362.858 94.4168L365.195 89.1262C365.645 89.1762 366.113 89.2096 366.58 89.2096C372.874 89.2096 378.015 84.0859 378.015 77.7772H373.541V77.7939Z" fill="#474FEA"/>
</g>
</g>
<defs>
<filter id="filter0_d_581_5965" x="37" y="292" width="240" height="73" filterUnits="userSpaceOnUse" color-interpolation-filters="sRGB">
<feFlood flood-opacity="0" result="BackgroundImageFix"/>
<feColorMatrix in="SourceAlpha" type="matrix" values="0 0 0 0 0 0 0 0 0 0 0 0 0 0 0 0 0 0 127 0" result="hardAlpha"/>
<feOffset dy="2"/>
<feGaussianBlur stdDeviation="2"/>
<feColorMatrix type="matrix" values="0 0 0 0 0.101961 0 0 0 0 0.109804 0 0 0 0 0.298039 0 0 0 0.06 0"/>
<feBlend mode="normal" in2="BackgroundImageFix" result="effect1_dropShadow_581_5965"/>
<feBlend mode="normal" in="SourceGraphic" in2="effect1_dropShadow_581_5965" result="shape"/>
</filter>
<filter id="filter1_d_581_5965" x="330" y="43" width="191" height="80" filterUnits="userSpaceOnUse" color-interpolation-filters="sRGB">
<feFlood flood-opacity="0" result="BackgroundImageFix"/>
<feColorMatrix in="SourceAlpha" type="matrix" values="0 0 0 0 0 0 0 0 0 0 0 0 0 0 0 0 0 0 127 0" result="hardAlpha"/>
<feOffset dy="2"/>
<feGaussianBlur stdDeviation="2"/>
<feColorMatrix type="matrix" values="0 0 0 0 0.101961 0 0 0 0 0.109804 0 0 0 0 0.298039 0 0 0 0.06 0"/>
<feBlend mode="normal" in2="BackgroundImageFix" result="effect1_dropShadow_581_5965"/>
<feBlend mode="normal" in="SourceGraphic" in2="effect1_dropShadow_581_5965" result="shape"/>
</filter>
<linearGradient id="paint0_linear_581_5965" x1="339.687" y1="71.7088" x2="102.318" y2="231.577" gradientUnits="userSpaceOnUse">
<stop offset="0.2" stop-color="#0DD7FF"/>
<stop offset="0.9" stop-color="#FF3293"/>
</linearGradient>
<clipPath id="clip0_581_5965">
<rect width="530" height="400" fill="white"/>
</clipPath>
</defs>
</svg>
