<svg width="1920" height="798" viewBox="0 0 1920 798" fill="none" xmlns="http://www.w3.org/2000/svg">
<g clip-path="url(#clip0_560_5837)">
<path d="M28.3671 -65.6002C33.0134 -72.8946 42.6567 -75.1917 50.1092 -70.7057C57.5618 -66.2196 60.0457 -56.6224 55.7743 -49.1022L55.5663 -48.7457C37.6057 -18.9086 31.2064 6.78013 32.077 28.4964C32.9437 50.1141 41.0635 69.1553 54.5087 85.766C81.8764 119.577 131.044 142.77 181.253 152.481L183.487 152.902C230.473 161.544 281.463 157.035 335.408 154.076C389.029 151.134 445.325 149.79 496.785 168.379L498.034 168.839C524.121 178.594 541.357 195.555 550.516 216.385C557.803 232.959 559.604 251.098 557.744 268.667C572.298 275.497 585.491 283.901 595.92 292.952L597.153 294.029C649.172 339.668 675.619 394.598 692.684 449.767C701.248 477.452 707.515 505.428 713.39 532.236C719.313 559.266 724.806 584.946 731.915 609.125C746.078 657.303 765.983 697.034 805.24 724.485C844.787 752.139 906.586 769.147 1008.49 765.517L1010.23 765.451C1157.67 759.502 1233.86 667.487 1302.78 558.301C1336.92 504.219 1370 444.602 1408.13 393.107C1446.61 341.127 1491.76 295.133 1552.16 267.317L1554.36 266.309C1741.08 181.233 1890.6 230.302 1938.35 254.989C1946.2 259.047 1949.27 268.701 1945.21 276.55C1941.15 284.399 1931.5 287.472 1923.65 283.414C1882.61 262.195 1743.53 215.278 1567.62 295.433L1565.55 296.381C1511.99 321.046 1470.72 362.351 1433.84 412.149C1396.61 462.431 1365.39 519.07 1329.84 575.382C1259.94 686.123 1175.89 790.776 1011.57 797.422L1009.63 797.496C904.352 801.247 834.505 783.997 786.902 750.709C739.009 717.219 716.259 669.326 701.215 618.151C693.719 592.654 687.97 565.726 682.132 539.085C676.245 512.223 670.231 485.465 662.114 459.224C646.079 407.384 622.099 358.481 576.039 318.074L574.946 317.12C568.357 311.403 559.931 305.723 550.326 300.697C540.625 327.863 522.908 352.683 501.307 366.82C487.793 375.663 471.757 380.916 454.896 378.385C438.089 375.862 423.009 365.991 410.584 349.6L409.994 348.815C399.898 335.236 399.749 318.212 403.415 304.582C407.109 290.85 415.48 277.194 427.334 268.794L428.164 268.213C457.292 248.073 494.297 248.533 526.418 257.168C526.56 247.06 524.873 237.567 521.223 229.265C515.742 216.799 505.3 205.711 486.801 198.802L485.913 198.476C441.284 182.354 391.061 183.071 337.161 186.028C285.265 188.875 229.443 193.891 177.64 184.363L175.177 183.898C120.9 173.4 63.5131 147.752 29.6356 105.899C12.4582 84.6771 1.28213 59.1797 0.103381 29.7787C-1.07141 0.476374 7.73447 -31.3338 28.1503 -65.2497L28.3671 -65.6002ZM520.611 288.75C492.976 280.762 465.431 281.364 446.358 294.538L445.836 294.904C441.114 298.249 436.439 305.003 434.316 312.895C432.166 320.889 433.429 326.702 435.674 329.722L436.491 330.799C444.918 341.715 452.988 345.74 459.646 346.74C466.732 347.803 474.923 345.842 483.783 340.044C498.933 330.13 513.012 310.806 520.611 288.75Z" fill="url(#paint0_linear_560_5837)"/>
</g>
<defs>
<linearGradient id="paint0_linear_560_5837" x1="3.30326" y1="155.383" x2="847.329" y2="1089.69" gradientUnits="userSpaceOnUse">
<stop offset="0.2" stop-color="#0DD7FF"/>
<stop offset="0.9" stop-color="#FF3293"/>
</linearGradient>
<clipPath id="clip0_560_5837">
<rect width="1920" height="798" fill="white" transform="translate(0 -0.00195312)"/>
</clipPath>
</defs>
</svg>
