<svg width="48" height="48" viewBox="0 0 48 48" fill="none" xmlns="http://www.w3.org/2000/svg">
<path fill-rule="evenodd" clip-rule="evenodd" d="M22.6233 14.2257C22.6439 14.0973 22.6666 13.9109 22.6696 13.693C22.6719 13.5264 22.6667 13.1772 22.5595 12.7515C22.4635 12.3702 22.1732 11.4777 21.2726 10.7727C20.2225 9.95063 19.0377 9.90777 18.2387 10.0851C17.5574 10.2363 17.0945 10.5456 16.9098 10.6776C16.2379 11.1575 15.7781 11.8237 15.5504 12.5557C15.5406 12.5788 15.5296 12.6046 15.5174 12.6331C15.4161 12.8695 15.2627 13.2146 15.0914 13.591C14.9211 13.9649 14.7426 14.3493 14.5931 14.6619C14.4855 14.8869 14.4192 15.0193 14.3888 15.0799C14.3685 15.1204 14.3644 15.1287 14.3747 15.1111C13.6856 16.2806 12.9293 17.5057 12.1504 18.7674C10.5859 21.3017 8.93007 23.9839 7.54307 26.6611C6.66218 28.3615 5.93412 30.1231 5.33985 31.9059C5.30879 31.9991 5.23832 32.2111 5.17492 32.4528C5.13049 32.6222 5.00121 33.1199 5.00001 33.7031C4.99948 33.9625 5.01507 34.6636 5.39463 35.4342C5.88845 36.4368 6.9299 37.3641 8.39271 37.5C9.49596 37.6025 10.3148 37.19 10.6051 37.0316C10.9748 36.8298 11.2616 36.6004 11.4453 36.4419C11.6734 36.2451 11.8975 36.0448 12.1178 35.8416C12.2678 36.1815 12.4841 36.5298 12.7923 36.8628C13.8017 37.9536 15.0527 38.0672 15.5774 38.0672C16.1221 38.0672 16.6042 37.96 17.0038 37.8206C16.9214 38.0605 16.837 38.3359 16.7775 38.6149C16.737 38.8045 16.6476 39.2578 16.6869 39.811C16.7157 40.2164 16.9101 41.9201 18.6373 42.8462C20.2222 43.696 21.6569 43.0778 21.9284 42.958C22.3823 42.7577 22.7161 42.5064 22.8724 42.3839C23.2192 42.1119 23.5452 41.7854 23.7996 41.5194C24.813 40.4599 25.7824 39.3563 26.7117 38.2632C26.677 38.4743 26.6544 38.704 26.6537 38.9467C26.6511 39.8085 26.9841 41.4888 28.7075 42.3824C30.0081 43.0567 31.2213 42.7572 31.5362 42.6751C32.0084 42.552 32.3941 42.3673 32.6218 42.2493C33.4459 41.8222 34.3702 41.0851 34.3589 41.0936C36.9744 39.132 39.4472 36.8603 41.7453 34.749C42.445 34.1062 43.1285 33.4783 43.7949 32.8786C45.2893 31.5336 45.4104 29.2318 44.0655 27.7374C43.1701 26.7426 41.8508 26.3564 40.6279 26.6061C40.9252 25.8897 41.1956 25.1548 41.4249 24.4042C41.5257 24.0742 41.6923 23.4209 41.5933 22.625C41.4754 21.6781 40.9569 20.5124 39.7472 19.7995C38.7381 19.2048 37.7627 19.2432 37.3304 19.289C36.8408 19.3408 36.4367 19.4704 36.1851 19.5628C36.0959 19.5956 36.0062 19.6313 35.9163 19.6694C35.9089 18.9609 35.7119 17.9378 34.8594 17.0504C33.8774 16.0282 32.6894 15.8898 32.1488 15.8796C31.9066 15.875 31.6736 15.8933 31.4561 15.9252C31.4615 15.8981 31.4667 15.8705 31.4717 15.8424C31.5272 15.5313 31.5831 14.9995 31.4421 14.3649C31.3031 13.7395 30.8909 12.5962 29.6817 11.8449C28.4621 11.0873 27.2494 11.235 26.6348 11.3928C25.6212 11.653 24.8575 12.2807 24.6202 12.4758C24.6142 12.4808 24.6086 12.4854 24.6032 12.4898C24.2565 12.7742 23.9173 13.0971 23.6983 13.3055L23.6672 13.3351C23.5469 13.4496 23.459 13.5332 23.3803 13.6058C23.309 13.6714 23.2798 13.6959 23.2799 13.696C23.2797 13.6962 23.2799 13.696 23.2799 13.696C23.0597 13.8715 22.8411 14.0479 22.6233 14.2257ZM6.69318 30.9259C6.6919 30.927 6.69061 30.9281 6.68933 30.9292L6.6903 30.9284C6.69109 30.9277 6.69206 30.9269 6.69318 30.9259Z" fill="#FFB56D"/>
<path d="M42.6517 14.4351C42.6517 14.4351 42.5572 14.3996 42.4982 14.3878C42.5808 14.1044 42.6399 13.8446 42.6753 13.5966C42.9469 11.4829 42.262 9.23928 40.8332 7.59789C39.8176 6.42884 37.9519 5.03543 34.8344 5C31.7287 5.02362 29.863 6.42884 28.8475 7.59789C27.4186 9.23928 26.7337 11.4829 27.0053 13.5966C27.2179 15.2617 28.5759 17.6706 30.0755 19.9142L30.0401 19.9378L18.1135 14.3996C18.0426 14.3642 17.9599 14.3524 17.8773 14.3524C17.7946 14.3524 17.712 14.376 17.6411 14.3996L5.45466 20.0441C5.25392 20.1386 5.12402 20.3393 5.12402 20.5637V42.4214C5.12402 42.6221 5.21849 42.7993 5.38381 42.9055C5.47828 42.9646 5.58456 43 5.69084 43C5.7735 43 5.85616 42.9882 5.92701 42.9528L17.9954 37.4145L29.922 42.9528C29.9929 42.9882 30.0755 43 30.1582 43C30.2409 43 30.3117 42.9764 30.3826 42.9528L42.5454 37.3083C42.7462 37.2138 42.876 37.0131 42.876 36.7887V14.9192C42.876 14.7185 42.7816 14.5413 42.6163 14.4351H42.6517ZM29.7095 8.34183C30.5715 7.34991 32.1657 6.15724 34.8344 6.14543C37.5149 6.16905 39.1091 7.34991 39.9711 8.34183C41.1756 9.72343 41.7778 11.6718 41.5417 13.4431C41.152 16.4189 36.3341 22.5594 34.8462 24.4015C33.3465 22.5594 28.5286 16.4189 28.1507 13.4431C27.9146 11.6718 28.5286 9.72343 29.7213 8.34183H29.7095ZM18.4323 15.8167L29.4497 20.9298L29.5914 41.5121L18.4323 36.3282V15.8167ZM6.26946 20.9298L17.2869 15.8167V36.4699L6.26946 41.5239V20.9298ZM30.7368 41.5239L30.5951 20.9298L30.7132 20.8707C32.4845 23.4096 34.244 25.5115 34.3857 25.6768C34.492 25.8067 34.6573 25.8776 34.8226 25.8776C34.9879 25.8776 35.1532 25.8067 35.2595 25.6768C35.4839 25.4052 39.8058 20.2331 41.7542 16.2181V36.399L30.725 41.5121L30.7368 41.5239Z" fill="#1A1C4C"/>
<path d="M38.3415 12.8881C38.3415 10.9988 36.7946 9.45183 34.9053 9.45183C33.0159 9.45183 31.469 10.9988 31.469 12.8881C31.469 14.7775 33.0159 16.3244 34.9053 16.3244C36.7946 16.3244 38.3415 14.7775 38.3415 12.8881ZM32.6144 12.8881C32.6144 11.6246 33.6417 10.5973 34.9053 10.5973C36.1688 10.5973 37.1961 11.6246 37.1961 12.8881C37.1961 14.1516 36.1688 15.179 34.9053 15.179C33.6417 15.179 32.6144 14.1516 32.6144 12.8881Z" fill="#1A1C4C"/>
</svg>
