<svg width="48" height="48" viewBox="0 0 48 48" fill="none" xmlns="http://www.w3.org/2000/svg">
<path fill-rule="evenodd" clip-rule="evenodd" d="M26.3767 11.2257C26.3561 11.0973 26.3334 10.9109 26.3304 10.693C26.3281 10.5264 26.3333 10.1772 26.4405 9.75147C26.5365 9.37017 26.8268 8.47771 27.7274 7.77269C28.7775 6.95063 29.9623 6.90777 30.7613 7.08511C31.4426 7.23631 31.9055 7.54564 32.0902 7.67757C32.7621 8.15747 33.2219 8.82373 33.4496 9.55565C33.4594 9.57877 33.4704 9.60456 33.4826 9.63305C33.5839 9.86953 33.7373 10.2146 33.9086 10.591C34.0789 10.9649 34.2574 11.3493 34.4069 11.6619C34.5145 11.8869 34.5808 12.0193 34.6112 12.0799C34.6315 12.1204 34.6356 12.1287 34.6253 12.1111C35.3144 13.2806 36.0707 14.5057 36.8496 15.7674C38.4141 18.3017 40.0699 20.9839 41.4569 23.6611C42.3378 25.3615 43.0659 27.1231 43.6602 28.9059C43.6912 28.9991 43.7617 29.2111 43.8251 29.4528C43.8695 29.6222 43.9988 30.1199 44 30.7031C44.0005 30.9625 43.9849 31.6636 43.6054 32.4342C43.1116 33.4368 42.0701 34.3641 40.6073 34.5C39.504 34.6025 38.6852 34.19 38.3949 34.0316C38.0252 33.8298 37.7384 33.6004 37.5547 33.4419C37.3266 33.2451 37.1025 33.0448 36.8822 32.8416C36.7322 33.1815 36.5159 33.5298 36.2077 33.8628C35.1983 34.9536 33.9473 35.0672 33.4226 35.0672C32.8779 35.0672 32.3958 34.96 31.9962 34.8206C32.0786 35.0605 32.163 35.3359 32.2225 35.6149C32.263 35.8045 32.3524 36.2578 32.3131 36.811C32.2843 37.2164 32.0899 38.9201 30.3627 39.8462C28.7778 40.696 27.3431 40.0778 27.0716 39.958C26.6177 39.7577 26.2839 39.5064 26.1276 39.3839C25.7808 39.1119 25.4548 38.7854 25.2004 38.5194C24.187 37.4599 23.2176 36.3563 22.2883 35.2632C22.323 35.4743 22.3456 35.704 22.3463 35.9467C22.3489 36.8085 22.0159 38.4888 20.2925 39.3824C18.9919 40.0567 17.7787 39.7572 17.4638 39.6751C16.9916 39.552 16.6059 39.3673 16.3782 39.2493C15.5541 38.8222 14.6298 38.0851 14.6411 38.0936C12.0256 36.132 9.55281 33.8603 7.25465 31.749C6.55499 31.1062 5.87151 30.4783 5.20512 29.8786C3.71072 28.5336 3.58957 26.2318 4.93453 24.7374C5.82986 23.7426 7.14919 23.3564 8.3721 23.6061C8.07483 22.8897 7.80441 22.1548 7.57508 21.4042C7.47425 21.0742 7.30768 20.4209 7.40672 19.625C7.52457 18.6781 8.04314 17.5124 9.25281 16.7995C10.2619 16.2048 11.2373 16.2432 11.6696 16.289C12.1592 16.3408 12.5633 16.4704 12.8149 16.5628C12.9041 16.5956 12.9938 16.6313 13.0837 16.6694C13.0911 15.9609 13.2881 14.9378 14.1406 14.0504C15.1226 13.0282 16.3106 12.8898 16.8512 12.8796C17.0934 12.875 17.3264 12.8933 17.5439 12.9252C17.5385 12.8981 17.5333 12.8705 17.5283 12.8424C17.4728 12.5313 17.4169 11.9995 17.5579 11.3649C17.6969 10.7395 18.1091 9.59616 19.3183 8.84494C20.5379 8.08728 21.7506 8.235 22.3652 8.39279C23.3788 8.65301 24.1425 9.28075 24.3798 9.47582C24.3858 9.48076 24.3914 9.48542 24.3968 9.48978C24.7435 9.77424 25.0827 10.0971 25.3017 10.3055L25.3328 10.3351C25.4531 10.4496 25.541 10.5332 25.6197 10.6058C25.691 10.6714 25.7202 10.6959 25.7201 10.696C25.7203 10.6962 25.7201 10.696 25.7201 10.696C25.9403 10.8715 26.1589 11.0479 26.3767 11.2257ZM42.3068 27.9259C42.3081 27.927 42.3094 27.9281 42.3107 27.9292L42.3097 27.9284C42.3089 27.9277 42.3079 27.9269 42.3068 27.9259Z" fill="#FF9DD2"/>
<path d="M41.6758 38.4598V29.4958C41.6758 29.2198 41.4838 28.9918 41.2198 28.9318C40.9558 28.8718 40.6798 29.0038 40.5718 29.2438C38.9038 32.6158 36.3238 33.8998 34.6078 33.9838C33.8878 34.0198 33.1558 33.8518 32.5438 33.6478C33.9358 33.1438 35.1478 32.3638 36.1078 31.3198C38.0398 29.2078 38.6038 26.5198 38.4958 24.8638C38.2798 21.3958 36.7918 15.4678 29.3758 14.6758C26.0158 14.3158 23.6278 15.7438 22.2238 17.0038C19.8118 19.1638 18.7198 22.1518 18.7198 23.9998C18.7198 26.0758 19.2718 27.8038 19.7158 28.8478C18.5998 28.6918 17.5918 28.6798 16.6318 28.8118L16.4878 27.1918C16.4638 26.8798 16.2958 26.5918 16.0438 26.4118C15.7918 26.2318 15.4678 26.1598 15.1558 26.2318C15.0118 26.2678 14.8438 26.3038 14.6758 26.3638C14.6998 26.2558 14.7118 26.1358 14.7118 26.0158C14.7118 25.0198 13.8958 24.2038 12.8998 24.2038C11.9038 24.2038 11.0878 25.0198 11.0878 26.0158C11.0878 26.6638 11.4358 27.2278 11.9398 27.5518C11.6878 27.6958 11.4358 27.8518 11.1598 28.0318C11.1238 27.0598 10.3318 26.2918 9.3598 26.2918C8.3878 26.2918 7.5478 27.1078 7.5478 28.1038C7.5478 28.9438 8.12381 29.6398 8.9038 29.8438C8.6878 30.0478 8.4838 30.2638 8.29181 30.4678C8.0278 29.7958 7.3798 29.3158 6.6118 29.3158C5.6158 29.3158 4.7998 30.1318 4.7998 31.1278C4.7998 32.0758 5.5318 32.8438 6.4438 32.9278C6.3118 33.1438 6.1918 33.3358 6.1078 33.5038C5.7958 34.0558 5.9878 34.7518 6.5278 35.0758L7.9438 35.9278C7.3078 37.1518 6.8758 38.1958 6.7198 38.5918C5.9998 38.9278 5.4958 39.6478 5.4958 40.4998C5.4958 41.6638 6.4438 42.5998 7.5958 42.5998H41.0758C42.2398 42.5998 43.1758 41.6518 43.1758 40.4998C43.1758 39.5398 42.5158 38.7238 41.6278 38.4838L41.6758 38.4598ZM12.9238 25.3438C13.2838 25.3438 13.5718 25.6318 13.5718 25.9918C13.5718 26.3518 13.2838 26.6398 12.9238 26.6398C12.5638 26.6398 12.2758 26.3518 12.2758 25.9918C12.2758 25.6318 12.5638 25.3438 12.9238 25.3438ZM5.9878 31.1038C5.9878 30.7438 6.2758 30.4558 6.6358 30.4558C6.9958 30.4558 7.2838 30.7438 7.2838 31.1038C7.2838 31.4638 6.9958 31.7518 6.6358 31.7518C6.2758 31.7518 5.9878 31.4638 5.9878 31.1038ZM36.6838 38.3758V36.7318C38.4118 36.2398 39.6958 35.2438 40.5118 34.4278V38.3758H36.6838ZM31.6918 36.6718C32.5918 36.8998 33.5278 37.0558 34.4518 37.0558C34.5118 37.0558 34.5838 37.0558 34.6438 37.0558C34.9438 37.0558 35.2438 37.0198 35.5198 36.9838V38.3878H31.6918V36.6718ZM26.8198 34.6438C27.7678 35.1838 29.0638 35.8318 30.5278 36.3358V38.3878H26.8198V34.6438ZM21.8398 38.3758V32.3998C22.5718 32.6278 23.2318 32.8918 23.8798 33.1678C24.3838 33.3718 24.8758 33.5758 25.3798 33.7558C25.4398 33.7918 25.5358 33.8638 25.6558 33.9358V38.3758H21.8398ZM16.9078 38.3758V31.9198C17.0638 31.8958 17.2078 31.8718 17.3758 31.8598C18.6958 31.8118 19.7638 31.9198 20.6878 32.1118V38.3758H16.9078ZM11.8918 38.3758V35.5078C12.8038 34.1518 14.0758 32.7958 15.7438 32.1958V38.3758H11.8918ZM10.3798 38.3758C10.4758 38.1478 10.5958 37.8838 10.7278 37.5838V38.3758H10.3798ZM34.6678 35.1238C36.3358 35.0518 38.6878 34.0438 40.5118 31.5598V32.6278C40.0558 33.2398 37.9918 35.7838 34.6078 35.8678C32.5678 35.9278 30.3718 35.0998 28.7038 34.2958C28.7518 34.2958 28.7878 34.2958 28.8358 34.2958C28.8358 34.2958 28.8358 34.2958 28.8478 34.2958C29.4838 34.2838 30.0958 34.2118 30.6838 34.1158C31.2598 34.4158 32.9398 35.2198 34.6558 35.1238H34.6678ZM20.6638 30.1678C20.7958 30.1918 21.4198 30.3238 21.9958 30.4798C22.1038 30.5038 22.1998 30.5398 22.3078 30.5638C22.8718 30.7318 23.5558 30.9718 23.7358 31.0318C24.2398 31.2238 24.6838 31.4038 25.0798 31.5718C26.2198 32.0518 27.1078 32.4238 28.3438 32.4238H28.3678C32.0278 32.4238 36.0958 30.2638 36.4318 25.4998C36.6958 21.7318 34.5358 18.3598 31.3438 17.0638H31.3198C30.6118 16.7758 29.8438 16.5958 29.0518 16.5358C28.0438 16.4638 27.0358 16.6198 26.0878 16.9918C26.0278 17.0038 25.9798 17.0278 25.9318 17.0638C25.0438 17.4478 24.1918 18.0118 23.4478 18.7678C21.7798 20.4358 20.8558 22.7158 21.0118 24.7318C21.1678 26.7238 21.8758 28.3438 22.5118 29.4118C22.4998 29.4118 22.4878 29.4118 22.4758 29.4118C22.4638 29.4118 22.4398 29.4118 22.4278 29.3998C22.0678 29.3038 21.6958 29.2078 21.2878 29.1118C21.2398 29.1118 21.2038 29.0878 21.1678 29.0878C20.8438 28.4638 19.9318 26.4958 19.9318 23.9878C19.9318 22.3318 20.9998 19.6918 23.0518 17.8558C24.2758 16.7518 26.3518 15.5038 29.3038 15.8158C35.5438 16.4878 37.1398 21.1438 37.3918 24.9238C37.4878 26.3638 36.9958 28.6918 35.3038 30.5278C34.1638 31.7758 32.6638 32.5798 30.8638 32.9398C30.8158 32.9398 30.7798 32.9398 30.7318 32.9398C30.7318 32.9398 29.7358 33.0958 28.8478 33.1558C28.3918 33.1558 27.9718 33.1438 27.5758 33.0958C27.5518 33.0958 27.5278 33.0958 27.5038 33.0958C27.3838 33.0838 27.2638 33.0598 27.1438 33.0358C26.7718 32.9638 26.4478 32.8798 26.2198 32.8198C26.1478 32.7958 26.0878 32.7838 26.0158 32.7598C25.9318 32.7358 25.8718 32.7118 25.8718 32.7118C25.8718 32.7118 25.8718 32.7118 25.8598 32.7118C25.3558 32.5438 24.8638 32.3398 24.3478 32.1238C22.6438 31.4158 20.7238 30.6238 17.3518 30.7318C16.9438 30.7438 16.5598 30.8038 16.1878 30.8878C16.1638 30.8878 16.1398 30.8878 16.1158 30.8998C11.8438 31.8838 9.6958 36.8998 9.1558 38.3998H8.1238C8.6758 37.1158 9.89981 34.5478 11.4838 32.8318C11.5318 32.7838 11.5678 32.7358 11.6158 32.6878C11.8318 32.4598 12.0478 32.2558 12.2758 32.0638C12.8998 31.5478 13.5238 31.1398 14.1358 30.8038C14.1718 30.7918 14.1958 30.7798 14.2198 30.7558C14.4718 30.6238 14.7358 30.5158 14.9998 30.4078C15.0718 30.3718 15.1438 30.3478 15.2158 30.3238C16.7998 29.7598 18.5038 29.7358 20.6758 30.1798L20.6638 30.1678ZM28.9558 17.6878C29.5078 17.7358 30.0358 17.8438 30.5278 18.0118V30.9478C29.7358 31.1638 28.9678 31.2598 28.3678 31.2598H28.3558C27.8038 31.2598 27.3238 31.1518 26.8198 30.9958V17.9638C27.5158 17.7358 28.2358 17.6278 28.9558 17.6878ZM35.2798 25.4278C35.0878 28.1878 33.4558 29.7358 31.6918 30.5278V18.5398C34.1038 19.9438 35.4598 22.8118 35.2798 25.4278ZM25.6558 30.5518C25.6558 30.5518 25.5718 30.5158 25.5358 30.5038C25.1758 30.3478 24.7798 30.1798 24.3358 30.0118C23.9518 29.5558 22.4038 27.5158 22.1758 24.6358C22.0438 22.9558 22.8478 21.0118 24.2758 19.5838C24.7078 19.1518 25.1758 18.7918 25.6678 18.5038V30.5638L25.6558 30.5518ZM8.7358 28.0678C8.7358 27.7078 9.0238 27.4198 9.3838 27.4198C9.7438 27.4198 10.0318 27.7078 10.0318 28.0678C10.0318 28.4278 9.7438 28.7158 9.3838 28.7158C9.0238 28.7158 8.7358 28.4278 8.7358 28.0678ZM10.8958 31.7038C9.6718 32.9278 8.8918 34.1638 8.4958 34.8718L7.1518 34.0438C7.5838 33.2638 8.7958 31.2838 10.7398 29.7478C12.7318 28.1758 14.4598 27.5878 15.3478 27.3718L15.4918 29.0038C15.4918 29.0038 15.3958 29.0278 15.3478 29.0518C15.3478 29.0518 15.3358 29.0518 15.3238 29.0518C15.0838 29.1238 14.7958 29.2198 14.4718 29.3518C14.3998 29.3758 14.3278 29.4118 14.2438 29.4478C13.3798 29.8198 12.2998 30.4198 11.2318 31.3918C11.1238 31.4878 11.0158 31.5838 10.9078 31.6798C10.8958 31.6918 10.8838 31.7038 10.8598 31.7158L10.8958 31.7038ZM41.1238 41.4118H7.6318C7.1158 41.4118 6.6958 40.9918 6.6958 40.4758C6.6958 39.9598 7.1158 39.5398 7.6318 39.5398H41.1118C41.6278 39.5398 42.0478 39.9598 42.0478 40.4758C42.0478 40.9918 41.6278 41.4118 41.1118 41.4118H41.1238Z" fill="#1A1C4C"/>
<path d="M15.5038 13.4398C15.5038 13.7638 15.7678 14.0158 16.0798 14.0158H19.7278C20.0518 14.0158 20.3038 13.7518 20.3038 13.4398C20.3038 13.1278 20.0398 12.8638 19.7278 12.8638H16.0798C15.7558 12.8638 15.5038 13.1278 15.5038 13.4398Z" fill="#1A1C4C"/>
<path d="M14.3799 13.4218C14.3695 13.0906 14.0925 12.8306 13.7613 12.841C13.4301 12.8515 13.1701 13.1285 13.1805 13.4597C13.191 13.7909 13.468 14.0509 13.7992 14.0404C14.1304 14.03 14.3904 13.753 14.3799 13.4218Z" fill="#1A1C4C"/>
<path d="M13.7878 11.6878C14.1118 11.6878 14.3638 11.4238 14.3638 11.1118V7.3558C14.3638 7.0318 14.0998 6.7798 13.7878 6.7798C13.4758 6.7798 13.2118 7.0438 13.2118 7.3558V11.1118C13.2118 11.4358 13.4758 11.6878 13.7878 11.6878Z" fill="#1A1C4C"/>
<path d="M13.2118 15.7078V17.3158H13.1998V19.5478H13.2118C13.2118 19.8598 13.4758 20.1238 13.7878 20.1238C14.0998 20.1238 14.3638 19.8598 14.3638 19.5478V15.7198C14.3638 15.3958 14.0998 15.1438 13.7878 15.1438C13.4758 15.1438 13.2118 15.4078 13.2118 15.7198V15.7078Z" fill="#1A1C4C"/>
<path d="M7.6798 14.0158H11.4838C11.8078 14.0158 12.0598 13.7518 12.0598 13.4398C12.0598 13.1278 11.7958 12.8638 11.4838 12.8638H7.6798C7.36781 12.8878 7.1278 13.1278 7.1278 13.4398C7.1278 13.7518 7.3798 14.0038 7.6798 14.0158Z" fill="#1A1C4C"/>
<path d="M15.4198 12.3958C15.5638 12.3958 15.7198 12.3358 15.8278 12.2278L17.0518 11.0038C17.2798 10.7758 17.2798 10.4038 17.0518 10.1758C16.8238 9.9478 16.4518 9.9478 16.2238 10.1758L14.9998 11.3998C14.7718 11.6278 14.7718 11.9998 14.9998 12.2278C15.1078 12.3358 15.2638 12.3958 15.4078 12.3958H15.4198Z" fill="#1A1C4C"/>
<path d="M10.9798 16.8478C11.1238 16.8478 11.2798 16.7878 11.3878 16.6798L12.6118 15.4558C12.8398 15.2278 12.8398 14.8558 12.6118 14.6278C12.3838 14.3998 12.0118 14.3998 11.7838 14.6278L10.5598 15.8518C10.3318 16.0798 10.3318 16.4518 10.5598 16.6798C10.6678 16.7878 10.8238 16.8478 10.9678 16.8478H10.9798Z" fill="#1A1C4C"/>
<path d="M14.8438 15.0118C14.8438 15.1558 14.9038 15.3118 15.0118 15.4198L16.2358 16.6438C16.4638 16.8718 16.8358 16.8718 17.0638 16.6438C17.2918 16.4158 17.2918 16.0438 17.0638 15.8158L15.8398 14.5918C15.6118 14.3638 15.2398 14.3638 15.0118 14.5918C14.9038 14.6998 14.8438 14.8558 14.8438 14.9998V15.0118Z" fill="#1A1C4C"/>
<path d="M10.4158 10.5838C10.4158 10.7278 10.4758 10.8838 10.5838 10.9918L11.8078 12.2158C12.0358 12.4438 12.4078 12.4438 12.6358 12.2158C12.8638 11.9878 12.8638 11.6158 12.6358 11.3878L11.4118 10.1638C11.1838 9.9358 10.8118 9.9358 10.5838 10.1638C10.4758 10.2718 10.4158 10.4278 10.4158 10.5718V10.5838Z" fill="#1A1C4C"/>
<path d="M36.7834 9.81801C36.5418 9.59122 36.162 9.60321 35.9353 9.84481C35.7085 10.0864 35.7205 10.4661 35.9621 10.6929C36.2037 10.9197 36.5834 10.9077 36.8102 10.6661C37.037 10.4245 37.025 10.0448 36.7834 9.81801Z" fill="#1A1C4C"/>
<path d="M34.8334 11.7537C34.5918 11.5269 34.2121 11.5389 33.9853 11.7805C33.7585 12.0221 33.7705 12.4018 34.0121 12.6286C34.2537 12.8554 34.6334 12.8434 34.8602 12.6018C35.087 12.3602 35.075 11.9805 34.8334 11.7537Z" fill="#1A1C4C"/>
<path d="M34.8385 7.9337C34.5969 7.7069 34.2172 7.7189 33.9904 7.9605C33.7636 8.2021 33.7756 8.58181 34.0172 8.80861C34.2588 9.0354 34.6385 9.0234 34.8653 8.7818C35.0921 8.54021 35.0801 8.1605 34.8385 7.9337Z" fill="#1A1C4C"/>
<path d="M38.7519 7.92551C38.5103 7.69871 38.1306 7.71071 37.9038 7.95231C37.677 8.19391 37.689 8.57362 37.9306 8.80041C38.1722 9.02721 38.5519 9.01521 38.7787 8.77361C39.0055 8.53201 38.9935 8.1523 38.7519 7.92551Z" fill="#1A1C4C"/>
<path d="M38.7414 11.729C38.4998 11.5022 38.1201 11.5142 37.8933 11.7558C37.6665 11.9974 37.6785 12.3771 37.9201 12.6039C38.1617 12.8307 38.5414 12.8187 38.7682 12.5771C38.995 12.3355 38.983 11.9558 38.7414 11.729Z" fill="#1A1C4C"/>
<path d="M35.8078 7.9318C35.8078 8.0878 35.8678 8.2318 35.9758 8.3398C36.0838 8.4478 36.2278 8.5078 36.3838 8.5078C36.7078 8.5078 36.9598 8.2438 36.9598 7.9318V5.3758C36.9718 5.0638 36.7078 4.7998 36.3838 4.7998C36.0598 4.7998 35.8078 5.0638 35.8078 5.3758V7.9318Z" fill="#1A1C4C"/>
<path d="M35.8078 15.1798C35.8078 15.3358 35.8678 15.4798 35.9758 15.5878C36.0838 15.6958 36.2278 15.7558 36.3838 15.7558C36.7078 15.7558 36.9598 15.4918 36.9598 15.1798V12.5398C36.9598 12.2158 36.6958 11.9638 36.3838 11.9638C36.0718 11.9638 35.8078 12.2278 35.8078 12.5398V15.1798Z" fill="#1A1C4C"/>
<path d="M38.2678 10.6798C38.3758 10.7878 38.5198 10.8478 38.6758 10.8478H41.2678C41.5918 10.8478 41.8438 10.5838 41.8438 10.2598C41.8438 9.9358 41.5798 9.6838 41.2678 9.6838H38.6758C38.3518 9.6838 38.0998 9.9478 38.0998 10.2718C38.0998 10.4278 38.1598 10.5718 38.2678 10.6798Z" fill="#1A1C4C"/>
<path d="M34.0558 9.6958H31.4878C31.1638 9.6958 30.9118 9.9598 30.9118 10.2838C30.9118 10.6078 30.9718 10.5838 31.0798 10.6918C31.1878 10.7998 31.3318 10.8598 31.4878 10.8598H34.0558C34.3798 10.8598 34.6318 10.5958 34.6318 10.2718C34.6318 9.9478 34.3678 9.6958 34.0558 9.6958Z" fill="#1A1C4C"/>
</svg>
