<svg width="48" height="48" viewBox="0 0 48 48" fill="none" xmlns="http://www.w3.org/2000/svg">
<path fill-rule="evenodd" clip-rule="evenodd" d="M11.2257 26.3767C11.0973 26.3561 10.9109 26.3334 10.693 26.3304C10.5264 26.3281 10.1772 26.3333 9.75147 26.4405C9.37017 26.5365 8.47771 26.8268 7.77269 27.7274C6.95063 28.7775 6.90777 29.9623 7.08511 30.7613C7.23631 31.4426 7.54564 31.9055 7.67757 32.0902C8.15747 32.7621 8.82373 33.2219 9.55565 33.4496C9.57877 33.4594 9.60456 33.4704 9.63305 33.4826C9.86953 33.5839 10.2146 33.7373 10.591 33.9086C10.9649 34.0789 11.3493 34.2574 11.6619 34.4069C11.8869 34.5145 12.0193 34.5808 12.0799 34.6112C12.1204 34.6315 12.1287 34.6356 12.1111 34.6253C13.2806 35.3144 14.5057 36.0707 15.7674 36.8496C18.3017 38.4141 20.9839 40.0699 23.6611 41.4569C25.3615 42.3378 27.1231 43.0659 28.9059 43.6602C28.9991 43.6912 29.2111 43.7617 29.4528 43.8251C29.6222 43.8695 30.1199 43.9988 30.7031 44C30.9625 44.0005 31.6636 43.9849 32.4342 43.6054C33.4368 43.1116 34.3641 42.0701 34.5 40.6073C34.6025 39.504 34.19 38.6852 34.0316 38.3949C33.8298 38.0252 33.6004 37.7384 33.4419 37.5547C33.2451 37.3266 33.0448 37.1025 32.8416 36.8822C33.1815 36.7322 33.5298 36.5159 33.8628 36.2077C34.9536 35.1983 35.0672 33.9473 35.0672 33.4226C35.0672 32.8779 34.96 32.3958 34.8206 31.9962C35.0605 32.0786 35.3359 32.163 35.6149 32.2225C35.8045 32.263 36.2578 32.3524 36.811 32.3131C37.2164 32.2843 38.9201 32.0899 39.8462 30.3627C40.696 28.7778 40.0778 27.3431 39.958 27.0716C39.7577 26.6177 39.5064 26.2839 39.3839 26.1276C39.1119 25.7808 38.7854 25.4548 38.5194 25.2004C37.4599 24.187 36.3563 23.2176 35.2632 22.2883C35.4743 22.323 35.704 22.3456 35.9467 22.3463C36.8085 22.3489 38.4888 22.0159 39.3824 20.2925C40.0567 18.9919 39.7572 17.7787 39.6751 17.4638C39.552 16.9916 39.3673 16.6059 39.2493 16.3782C38.8222 15.5541 38.0851 14.6298 38.0936 14.6411C36.132 12.0256 33.8603 9.55281 31.749 7.25465C31.1062 6.55499 30.4783 5.87151 29.8786 5.20512C28.5336 3.71072 26.2318 3.58957 24.7374 4.93453C23.7426 5.82986 23.3564 7.14919 23.6061 8.3721C22.8897 8.07483 22.1548 7.80441 21.4042 7.57508C21.0742 7.47425 20.4209 7.30768 19.625 7.40672C18.6781 7.52457 17.5124 8.04314 16.7995 9.25281C16.2048 10.2619 16.2432 11.2373 16.289 11.6696C16.3408 12.1592 16.4704 12.5633 16.5628 12.8149C16.5956 12.9041 16.6313 12.9938 16.6694 13.0837C15.9609 13.0911 14.9378 13.2881 14.0504 14.1406C13.0282 15.1226 12.8898 16.3106 12.8796 16.8512C12.875 17.0934 12.8933 17.3264 12.9252 17.5439C12.8981 17.5385 12.8705 17.5333 12.8424 17.5283C12.5313 17.4728 11.9995 17.4169 11.3649 17.5579C10.7395 17.6969 9.59616 18.1091 8.84494 19.3183C8.08728 20.5379 8.235 21.7506 8.39279 22.3652C8.65301 23.3788 9.28075 24.1425 9.47582 24.3798C9.48076 24.3858 9.48542 24.3914 9.48978 24.3968C9.77424 24.7435 10.0971 25.0827 10.3055 25.3017L10.3351 25.3328C10.4496 25.4531 10.5332 25.541 10.6058 25.6197C10.6714 25.691 10.6959 25.7202 10.696 25.7201C10.6962 25.7203 10.696 25.7201 10.696 25.7201C10.8715 25.9403 11.0479 26.1589 11.2257 26.3767ZM27.9259 42.3068C27.927 42.3081 27.9281 42.3094 27.9292 42.3107L27.9284 42.3097C27.9277 42.3089 27.9269 42.3079 27.9259 42.3068Z" fill="#FFF443"/>
<path d="M33.9388 35.0278H33.9628C35.1868 35.0278 35.9908 34.5118 36.6988 34.0438C37.3468 33.6238 37.8988 33.2638 38.7388 33.2638C40.6588 33.2638 42.2188 35.0998 42.2308 35.1238C42.3508 35.2678 42.5068 35.3278 42.6748 35.3278C42.8068 35.3278 42.9388 35.2798 43.0468 35.1958C43.2988 34.9918 43.3228 34.6198 43.1188 34.3798C43.0468 34.2838 41.1988 32.0998 38.7268 32.0998C37.5388 32.0998 36.7468 32.6158 36.0508 33.0598C35.3908 33.4798 34.8268 33.8518 33.9508 33.8518H33.9268C32.6308 33.8518 32.2588 33.5638 31.7548 33.1678C31.3348 32.8438 30.8308 32.4598 29.8348 32.1838C29.7988 31.7758 29.7508 31.3558 29.6908 30.9358C29.5828 30.1438 29.4628 29.3998 29.3428 28.6678C30.1348 28.7398 30.5308 29.0278 31.0228 29.3878C31.6588 29.8558 32.3668 30.3838 33.9148 30.3958H33.9388C35.1628 30.3958 35.9668 29.8798 36.6748 29.4118C37.3228 28.9918 37.8748 28.6318 38.7148 28.6318C40.6348 28.6318 42.1948 30.4678 42.2068 30.4918C42.3268 30.6358 42.4828 30.6958 42.6508 30.6958C42.7828 30.6958 42.9148 30.6478 43.0228 30.5638C43.2748 30.3598 43.2988 29.9878 43.0948 29.7478C43.0228 29.6518 41.1748 27.4678 38.7028 27.4678C37.5148 27.4678 36.7228 27.9838 36.0268 28.4278C35.3668 28.8478 34.8028 29.2198 33.9268 29.2198H33.9028C32.7388 29.2198 32.2468 28.8598 31.6948 28.4398C31.1308 28.0198 30.4948 27.5518 29.2588 27.4798C29.2108 27.4798 29.1628 27.4798 29.1148 27.4918C27.9388 21.3478 26.2108 17.4478 25.7428 16.4518C25.8988 16.3678 26.0428 16.2838 26.1868 16.1878L29.7028 20.2678C29.8108 20.3878 29.9668 20.4598 30.1228 20.4718L31.9108 20.5318L31.9348 22.3198C31.9348 22.5838 32.1148 22.8118 32.3788 22.8838L37.2148 24.1078C37.2148 24.1078 37.3108 24.1198 37.3588 24.1198C37.4788 24.1198 37.5988 24.0838 37.6948 24.0118C37.8388 23.9158 37.9228 23.7478 37.9348 23.5798C37.9348 23.4478 38.1388 20.1838 35.1628 17.0278C32.7748 14.4958 28.5748 12.6478 27.5068 12.2038C27.4828 12.1078 27.4588 12.0118 27.4228 11.9158L28.8028 10.6318L29.6428 11.7478C29.7508 11.8918 29.9308 11.9758 30.1108 11.9758H33.6028C33.8308 11.9758 34.0348 11.8438 34.1308 11.6398L34.8868 10.0318L35.6308 11.7238C35.7268 11.9398 35.9308 12.0718 36.1588 12.0718H42.1228C42.3148 12.0718 42.4948 11.9758 42.6028 11.8198C42.7108 11.6638 42.7348 11.4598 42.6628 11.2798C42.5668 11.0278 40.2148 5.0278 34.5148 4.7998C34.4068 4.7998 34.2988 4.7998 34.1908 4.7998C29.4868 4.7998 24.8548 8.8318 23.9428 9.6838C23.5348 9.6958 23.1388 9.7798 22.7668 9.9238C22.4308 9.6478 22.0588 9.4318 21.6388 9.2878C21.0268 8.6998 16.8148 4.8118 13.4908 4.8118C8.2948 4.8118 5.7868 9.0958 5.6788 9.2758C5.5708 9.4558 5.5708 9.6718 5.6788 9.8518C5.7868 10.0318 5.9788 10.1398 6.1828 10.1398H10.8748C10.9948 10.1398 11.1148 10.1038 11.2108 10.0318L12.6388 9.0358L12.6748 10.2838C12.6748 10.4998 12.7948 10.6798 12.9868 10.7878L13.4188 11.0158C11.6068 11.3158 9.5788 11.9398 8.0308 13.2118C5.4028 15.3718 5.4028 18.4318 5.4028 18.5518C5.4028 18.8758 5.6668 19.1278 5.9908 19.1278H10.7548C10.9348 19.1278 11.1028 19.0438 11.2108 18.9118C11.3188 18.7798 11.3668 18.5878 11.3188 18.4198L10.9828 16.9918L13.4668 17.3878C12.5908 20.4358 14.4628 23.0038 14.5468 23.1238C14.6548 23.2798 14.8348 23.3638 15.0148 23.3638C15.0868 23.3638 15.1588 23.3518 15.2308 23.3158L19.4548 21.5758C19.7428 21.4558 19.8868 21.1318 19.7788 20.8438L19.1428 19.0678L20.3188 19.3798C20.6188 19.4638 20.9188 19.2958 21.0148 19.0078L21.8428 16.6678C22.6228 18.4318 24.0868 22.3198 24.3508 27.1558C24.3868 27.8758 24.4108 28.5598 24.4228 29.2318C24.3628 29.2318 24.3148 29.2438 24.2668 29.2438H24.2068C23.0788 29.2438 22.5388 28.8718 21.9148 28.4398C21.2788 27.9958 20.5468 27.5038 19.2388 27.4678C17.9308 27.4678 17.1388 27.9598 16.4308 28.4278C15.7708 28.8598 15.2068 29.2438 14.2228 29.2438H14.1988C13.2148 29.2438 12.7468 28.9078 12.1588 28.4878C11.4868 28.0078 10.7308 27.4678 9.24281 27.4678C7.37081 27.4678 5.2468 29.5078 5.0068 29.7358C4.7788 29.9638 4.7788 30.3238 5.0068 30.5638C5.1148 30.6838 5.2708 30.7318 5.4268 30.7318C5.5828 30.7318 5.7268 30.6718 5.8348 30.5638C6.3868 30.0238 8.05481 28.6318 9.24281 28.6318C10.3468 28.6318 10.8748 29.0038 11.4748 29.4358C12.1228 29.8918 12.8668 30.3958 14.2228 30.4078C15.5548 30.4078 16.3588 29.8678 17.0668 29.3998C17.7148 28.9798 18.2788 28.6078 19.1908 28.6318C20.1508 28.6558 20.6548 29.0038 21.2428 29.3998C21.9388 29.8798 22.7188 30.4318 24.2668 30.4078C24.3268 30.4078 24.3748 30.4078 24.4348 30.3958C24.4348 31.6438 24.3988 32.7958 24.3268 33.8638C24.3028 33.8638 24.2788 33.8638 24.2548 33.8638H24.1948C23.0668 33.8638 22.5268 33.4918 21.9028 33.0598C21.2668 32.6158 20.5348 32.1238 19.2268 32.0878C17.9188 32.0638 17.1268 32.5798 16.4188 33.0478C15.7588 33.4798 15.1948 33.8638 14.2108 33.8638H14.1868C13.2028 33.8638 12.7348 33.5278 12.1468 33.1078C11.4748 32.6278 10.7188 32.0878 9.2308 32.0878C7.3588 32.0878 5.2348 34.1278 4.9948 34.3558C4.7668 34.5838 4.7668 34.9438 4.9948 35.1838C5.1028 35.3038 5.2588 35.3518 5.4148 35.3518C5.5708 35.3518 5.7148 35.2918 5.8228 35.1838C6.3748 34.6438 8.0428 33.2518 9.2308 33.2518C10.3348 33.2518 10.8628 33.6238 11.4628 34.0558C12.0988 34.5118 12.8308 35.0278 14.1868 35.0278H14.2108C15.5428 35.0278 16.3468 34.4878 17.0548 34.0198C17.7028 33.5998 18.2668 33.2278 19.1788 33.2518C20.1388 33.2758 20.6428 33.6238 21.2188 34.0198C21.9028 34.4878 22.6828 35.0278 24.1708 35.0278H24.2188C24.1108 36.3718 23.9548 37.5238 23.8108 38.4718C22.9228 38.3998 22.4308 38.0638 21.8788 37.6798C21.2428 37.2358 20.5108 36.7438 19.2028 36.7078C17.8948 36.6958 17.1028 37.1998 16.3948 37.6678C15.7348 38.0998 15.1708 38.4838 14.1868 38.4838C13.2148 38.4838 12.7228 38.1478 12.1228 37.7278C11.4508 37.2478 10.6948 36.7078 9.2068 36.7078C7.3348 36.7078 5.2108 38.7478 4.9708 38.9758C4.7428 39.2038 4.7428 39.5638 4.9708 39.8038C5.0788 39.9238 5.2348 39.9718 5.3908 39.9718C5.5468 39.9718 5.6908 39.9118 5.7988 39.8038C6.3508 39.2638 8.0188 37.8718 9.2068 37.8718C10.3108 37.8718 10.8388 38.2438 11.4388 38.6758C12.0868 39.1318 12.8308 39.6598 14.1868 39.6478C15.5188 39.6478 16.3228 39.1078 17.0308 38.6398C17.6788 38.2198 18.2428 37.8478 19.1548 37.8718C20.1148 37.8958 20.6188 38.2438 21.1948 38.6398C21.7948 39.0478 22.4548 39.5038 23.5828 39.6118C23.3428 40.8718 23.1388 41.5558 23.1268 41.5798C23.0668 41.7598 23.1028 41.9518 23.2108 42.0958C23.3188 42.2398 23.4988 42.3358 23.6788 42.3358H28.8988C29.1868 42.3358 29.4268 42.1318 29.4748 41.8558C29.4988 41.7358 29.7508 40.1878 29.8708 37.9078C30.4348 38.0398 30.7228 38.2918 31.0588 38.5918C31.5988 39.0838 32.2108 39.6358 33.8668 39.6478H33.8908C35.1148 39.6478 35.9188 39.1318 36.6268 38.6638C37.2748 38.2438 37.8268 37.8838 38.6668 37.8838C40.5868 37.8838 42.1468 39.7198 42.1588 39.7438C42.2788 39.8878 42.4348 39.9478 42.6028 39.9478C42.7348 39.9478 42.8668 39.8998 42.9748 39.8158C43.2268 39.6118 43.2508 39.2398 43.0468 38.9998C42.9748 38.9038 41.1268 36.7198 38.6548 36.7198C37.4668 36.7198 36.6748 37.2358 35.9788 37.6798C35.3188 38.1118 34.7548 38.4718 33.8788 38.4718H33.8548C32.6428 38.4718 32.2828 38.1358 31.8268 37.7158C31.4188 37.3438 30.9148 36.8998 29.9068 36.7078C29.9308 35.6998 29.9188 34.5838 29.8588 33.4198C30.3748 33.6118 30.6628 33.8398 30.9748 34.0798C31.5628 34.5238 32.1628 34.9918 33.8548 35.0038L33.9388 35.0278ZM18.0148 12.6958C18.0148 11.3398 19.1188 10.2478 20.4628 10.2478C21.1108 10.2478 21.6868 10.4998 22.1188 10.9078C22.1668 10.9918 22.2388 11.0638 22.3108 11.1118C22.6708 11.5438 22.8988 12.0838 22.8988 12.6958C22.8988 14.0518 21.7948 15.1438 20.4508 15.1438C19.1068 15.1438 18.0028 14.0398 18.0028 12.6958H18.0148ZM24.0868 10.8478C25.4428 10.8478 26.5348 11.9518 26.5348 13.2958C26.5348 14.6398 25.4308 15.7438 24.0868 15.7438C23.6428 15.7438 23.2108 15.6118 22.8388 15.3958C23.5948 14.7358 24.0868 13.7758 24.0868 12.6958C24.0868 12.0478 23.8948 11.4358 23.5948 10.9078C23.7628 10.8718 23.9188 10.8478 24.0868 10.8478ZM36.7588 22.7998L33.1108 21.8758L33.0868 19.9798C33.0868 19.6678 32.8348 19.4158 32.5228 19.4038L30.4348 19.3318L27.0268 15.3718C27.3988 14.8558 27.6148 14.2318 27.6628 13.5598C29.1868 14.2438 32.4268 15.8518 34.3228 17.8438C36.1468 19.7758 36.6268 21.7678 36.7468 22.7998H36.7588ZM34.4908 5.9878C38.2588 6.1438 40.4188 9.3958 41.2228 10.9318H36.5548L35.4508 8.4238C35.3548 8.2198 35.1508 8.0758 34.9228 8.0758C34.6708 8.0878 34.4908 8.2078 34.3948 8.4118L33.2548 10.8478H30.4348L29.3788 9.4438C29.2828 9.3118 29.1268 9.2278 28.9588 9.2158C28.7908 9.2038 28.6348 9.2518 28.5148 9.3718L26.8228 10.9558C26.4508 10.5238 25.9948 10.1878 25.4548 9.97181C27.0988 8.6158 30.8788 5.8678 34.5028 5.9998L34.4908 5.9878ZM13.8388 9.9238L13.7788 7.9438C13.7788 7.7278 13.6468 7.5358 13.4548 7.4398C13.2628 7.3438 13.0348 7.3558 12.8548 7.4878L10.6948 8.9878H7.3108C8.2588 7.8478 10.2988 5.9878 13.5028 5.9878C15.5668 5.9878 18.2188 7.9078 19.7308 9.1678C18.7588 9.3718 17.9308 9.9718 17.4148 10.7878C17.0188 10.7758 16.3348 10.7518 15.4828 10.7998L13.8388 9.9238ZM10.3108 15.6958C10.1188 15.6598 9.9268 15.7318 9.7948 15.8758C9.6628 16.0198 9.6148 16.2118 9.6508 16.4038L10.0228 17.9638H6.6268C6.7588 17.0878 7.2148 15.3958 8.7748 14.1118C11.2468 12.0718 15.2908 11.9038 16.9468 11.9278C16.8988 12.1678 16.8628 12.4318 16.8628 12.6838C16.8628 12.8998 16.8868 13.1038 16.9228 13.3078C16.2628 13.7518 14.7628 14.8678 13.9348 16.2718L10.3108 15.6838V15.6958ZM20.1028 18.1198L18.3748 17.6518C18.1588 17.6038 17.9428 17.6518 17.7988 17.8198C17.6548 17.9758 17.6068 18.2038 17.6788 18.4078L18.4948 20.6998L15.2308 22.0438C14.7988 21.2758 13.9708 19.4398 14.6428 17.4598C15.0868 16.1638 16.5388 14.9878 17.3188 14.4358C17.9428 15.5398 19.1068 16.2958 20.4628 16.2958C20.5588 16.2958 20.6548 16.2718 20.7508 16.2718L20.1028 18.1078V18.1198ZM28.4668 41.1838H24.5068C24.7828 40.0798 25.2508 37.8118 25.4788 34.5478C25.5028 34.4638 25.5148 34.3798 25.5028 34.2958C25.6348 32.2558 25.6828 29.8438 25.5268 27.0958C25.2868 22.6678 24.0988 19.0438 23.2468 16.9798C23.3788 17.0158 23.5108 17.0518 23.6548 17.0758C24.1228 17.1478 24.5188 17.1478 24.7948 17.1358C25.4188 18.5038 27.5548 23.5678 28.5508 31.1158C29.1388 35.5318 28.6588 39.7918 28.4668 41.1958V41.1838Z" fill="#1A1C4C"/>
</svg>
