<svg width="48" height="48" viewBox="0 0 48 48" fill="none" xmlns="http://www.w3.org/2000/svg">
<path fill-rule="evenodd" clip-rule="evenodd" d="M26.3767 36.0614C26.3561 36.1898 26.3334 36.3762 26.3304 36.5942C26.3281 36.7608 26.3333 37.1099 26.4405 37.5356C26.5365 37.9169 26.8268 38.8094 27.7274 39.5144C28.7775 40.3365 29.9623 40.3793 30.7613 40.202C31.4426 40.0508 31.9055 39.7415 32.0902 39.6095C32.7621 39.1296 33.2219 38.4634 33.4496 37.7315C33.4594 37.7083 33.4704 37.6825 33.4826 37.6541C33.5839 37.4176 33.7373 37.0725 33.9086 36.6962C34.0789 36.3222 34.2574 35.9378 34.4069 35.6253C34.5145 35.4002 34.5808 35.2678 34.6112 35.2072C34.6315 35.1667 34.6356 35.1584 34.6253 35.176C35.3144 34.0065 36.0707 32.7814 36.8496 31.5197C38.4141 28.9854 40.0699 26.3032 41.4569 23.626C42.3378 21.9256 43.0659 20.164 43.6602 18.3812C43.6912 18.288 43.7617 18.076 43.8251 17.8343C43.8695 17.6649 43.9988 17.1672 44 16.584C44.0005 16.3246 43.9849 15.6235 43.6054 14.8529C43.1116 13.8503 42.0701 12.923 40.6073 12.7871C39.504 12.6846 38.6852 13.0971 38.3949 13.2555C38.0252 13.4573 37.7384 13.6867 37.5547 13.8452C37.3266 14.042 37.1025 14.2423 36.8822 14.4455C36.7322 14.1056 36.5159 13.7573 36.2077 13.4243C35.1983 12.3335 33.9473 12.22 33.4226 12.22C32.8779 12.22 32.3958 12.3271 31.9962 12.4665C32.0786 12.2266 32.163 11.9512 32.2225 11.6722C32.263 11.4827 32.3524 11.0293 32.3131 10.4761C32.2843 10.0707 32.0899 8.367 30.3627 7.4409C28.7778 6.59114 27.3431 7.20935 27.0716 7.32914C26.6177 7.52939 26.2839 7.78067 26.1276 7.90326C25.7808 8.17519 25.4548 8.50174 25.2004 8.76767C24.187 9.82719 23.2176 10.9308 22.2883 12.0239C22.323 11.8128 22.3456 11.5832 22.3463 11.3404C22.3489 10.4786 22.0159 8.79831 20.2925 7.90475C18.9919 7.23041 17.7787 7.52996 17.4638 7.61205C16.9916 7.73513 16.6059 7.91985 16.3782 8.03783C15.5541 8.46487 14.6298 9.20197 14.6411 9.19349C12.0256 11.1551 9.55281 13.4268 7.25465 15.5381C6.55499 16.1809 5.87151 16.8088 5.20512 17.4085C3.71072 18.7535 3.58957 21.0553 4.93453 22.5497C5.82986 23.5445 7.14919 23.9307 8.3721 23.6811C8.07483 24.3974 7.80441 25.1323 7.57508 25.8829C7.47425 26.2129 7.30768 26.8662 7.40672 27.6621C7.52457 28.609 8.04314 29.7747 9.25281 30.4876C10.2619 31.0823 11.2373 31.0439 11.6696 30.9981C12.1592 30.9463 12.5633 30.8167 12.8149 30.7243C12.9041 30.6915 12.9938 30.6558 13.0837 30.6177C13.0911 31.3262 13.2881 32.3493 14.1406 33.2367C15.1226 34.2589 16.3106 34.3973 16.8512 34.4076C17.0934 34.4121 17.3264 34.3938 17.5439 34.3619C17.5385 34.389 17.5333 34.4166 17.5283 34.4447C17.4728 34.7558 17.4169 35.2876 17.5579 35.9223C17.6969 36.5476 18.1091 37.691 19.3183 38.4422C20.5379 39.1998 21.7506 39.0521 22.3652 38.8943C23.3788 38.6341 24.1425 38.0064 24.3798 37.8113C24.3858 37.8063 24.3914 37.8017 24.3968 37.7973C24.7435 37.5129 25.0827 37.19 25.3017 36.9816L25.3328 36.952C25.4531 36.8375 25.541 36.7539 25.6197 36.6813C25.691 36.6157 25.7202 36.5912 25.7201 36.5911C25.7203 36.591 25.7201 36.5911 25.7201 36.5911C25.9403 36.4156 26.1589 36.2392 26.3767 36.0614ZM42.3068 19.3612C42.3081 19.3601 42.3094 19.359 42.3107 19.3579L42.3097 19.3587C42.3089 19.3594 42.3079 19.3602 42.3068 19.3612Z" fill="#5BECFF"/>
<path d="M43.124 18.4562C43.0159 18.2762 42.824 18.1682 42.6199 18.1682L36.5959 18.1922L29.216 11.3642C29.108 11.2682 28.9639 11.2082 28.82 11.2082H26.9959V10.0442H27.5719C27.8959 10.0442 28.1479 9.7802 28.1479 9.4682C28.1479 9.1562 27.8839 8.8922 27.5719 8.8922H25.2679C24.9439 8.8922 24.6919 9.1562 24.6919 9.4682C24.6919 9.7802 24.9559 10.0442 25.2679 10.0442H25.844V11.2082H23.1559V10.0442H23.7319C24.0559 10.0442 24.3079 9.7802 24.3079 9.4682C24.3079 9.1562 24.0439 8.8922 23.7319 8.8922H21.4279C21.1039 8.8922 20.8519 9.1562 20.8519 9.4682C20.8519 9.7802 21.1159 10.0442 21.4279 10.0442H22.0039V11.2082H19.9159L17.9839 7.5122C17.8879 7.3202 17.6839 7.2002 17.4679 7.2002H13.6399C13.3159 7.2002 13.0639 7.4642 13.0639 7.7762V11.1962H10.2799C10.0159 11.1962 9.77595 11.3762 9.71595 11.6402L7.43595 20.9642H5.38395C5.19195 20.9642 5.01195 21.0602 4.90395 21.2162C4.79595 21.3722 4.77195 21.5762 4.83195 21.7562L7.93995 30.0122C6.57195 30.5882 5.35995 31.7522 5.17995 31.9202C4.95195 32.1482 4.95195 32.5082 5.17995 32.7482C5.28795 32.8682 5.44395 32.9162 5.59995 32.9162C5.75595 32.9162 5.89995 32.8562 6.00795 32.7482C6.54795 32.2202 8.20395 30.8402 9.37995 30.8402C10.4719 30.8402 10.9879 31.2122 11.5879 31.6322C12.2239 32.0882 12.9439 32.6042 14.2759 32.6042H14.2999C15.6079 32.6042 16.4119 32.0762 17.1079 31.6082C17.7439 31.1882 18.2719 30.8282 19.2079 30.8522C20.1559 30.8762 20.6479 31.2242 21.2239 31.6082C21.9199 32.0882 22.6879 32.5922 24.2119 32.6042C25.5079 32.5922 26.1799 32.0882 26.7799 31.6442C27.3319 31.2362 27.812 30.8762 28.844 30.8762C29.9 30.8762 30.3319 31.2002 30.8839 31.6082C31.5079 32.0762 32.216 32.5922 33.752 32.6042H33.7759C34.9879 32.6042 35.7799 32.0882 36.4879 31.6322C37.124 31.2242 37.6759 30.8642 38.5039 30.8642C40.3999 30.8642 41.936 32.6762 41.948 32.7002C42.152 32.9522 42.5239 32.9762 42.764 32.7722C43.0159 32.5682 43.04 32.1962 42.8359 31.9562C42.764 31.8602 40.9399 29.7002 38.492 29.7002C37.7599 29.7002 37.1839 29.8922 36.6799 30.1562L43.1119 19.0322C43.22 18.8522 43.22 18.6242 43.1119 18.4442L43.124 18.4562ZM14.1919 8.3642H17.0839L18.5719 11.2082H14.1919V8.3642ZM10.7119 12.3722H28.5919L32.5159 15.9962H9.82395L10.7119 12.3722ZM9.53595 17.1602H33.656C33.656 17.1602 33.716 17.1482 33.74 17.1482L34.8799 18.2042H34.0759C34.0039 18.2042 32.24 18.1802 30.92 19.2482C30.74 19.3922 30.584 19.5362 30.4279 19.6682C29.4799 20.4842 28.9039 20.9762 26.132 20.9762H8.59995L9.53595 17.1602ZM33.7759 31.4522C32.6239 31.4522 32.1439 31.0922 31.5919 30.6842C30.9919 30.2402 30.2959 29.7242 28.8679 29.7242C27.4519 29.7242 26.7439 30.2522 26.1079 30.7202C25.5679 31.1282 25.136 31.4402 24.2239 31.4522H24.1639C23.0479 31.4522 22.5199 31.0802 21.8959 30.6602C21.2599 30.2282 20.5399 29.7242 19.2439 29.7002C17.9479 29.6762 17.1679 30.1922 16.4719 30.6482C15.8239 31.0802 15.2599 31.4522 14.2999 31.4522C13.3159 31.4522 12.8599 31.1282 12.2599 30.6962C11.5999 30.2162 10.8439 29.6762 9.37995 29.6762C9.28395 29.6762 9.17595 29.6762 9.06795 29.7002L8.31195 27.6962H36.7759L34.6999 31.2842C34.424 31.3802 34.1239 31.4522 33.7759 31.4522ZM37.4599 26.5322H7.87995L6.22395 22.1402H26.132C29.1679 22.1402 30.0319 21.5402 31.1839 20.5442C31.3279 20.4242 31.4839 20.2922 31.652 20.1482C32.636 19.3562 34.0519 19.3562 34.0639 19.3562H36.3799L41.5999 19.3322L37.448 26.5322H37.4599Z" fill="#1A1C4C"/>
<path d="M13.6159 23.9642H12.5119C12.1879 23.9642 11.9359 24.2282 11.9359 24.5402C11.9359 24.8522 12.1999 25.1162 12.5119 25.1162H13.6159C13.9399 25.1162 14.1919 24.8522 14.1919 24.5402C14.1919 24.2282 13.9279 23.9642 13.6159 23.9642Z" fill="#1A1C4C"/>
<path d="M17.2039 23.9642H16.0999C15.7759 23.9642 15.5239 24.2282 15.5239 24.5402C15.5239 24.8522 15.7879 25.1162 16.0999 25.1162H17.2039C17.5279 25.1162 17.7799 24.8522 17.7799 24.5402C17.7799 24.2282 17.5159 23.9642 17.2039 23.9642Z" fill="#1A1C4C"/>
<path d="M20.7799 23.9642H19.6759C19.3519 23.9642 19.0999 24.2282 19.0999 24.5402C19.0999 24.8522 19.3639 25.1162 19.6759 25.1162H20.7799C21.1039 25.1162 21.3559 24.8522 21.3559 24.5402C21.3559 24.2282 21.0919 23.9642 20.7799 23.9642Z" fill="#1A1C4C"/>
<path d="M24.3679 23.9642H23.2639C22.9399 23.9642 22.6879 24.2282 22.6879 24.5402C22.6879 24.8522 22.9519 25.1162 23.2639 25.1162H24.3679C24.6919 25.1162 24.944 24.8522 24.944 24.5402C24.944 24.2282 24.6799 23.9642 24.3679 23.9642Z" fill="#1A1C4C"/>
<path d="M27.9559 23.9642H26.8519C26.528 23.9642 26.2759 24.2282 26.2759 24.5402C26.2759 24.8522 26.5399 25.1162 26.8519 25.1162H27.9559C28.28 25.1162 28.5319 24.8522 28.5319 24.5402C28.5319 24.2282 28.268 23.9642 27.9559 23.9642Z" fill="#1A1C4C"/>
<path d="M13.6159 18.5042H12.5119C12.1879 18.5042 11.9359 18.7682 11.9359 19.0802C11.9359 19.3922 12.1999 19.6562 12.5119 19.6562H13.6159C13.9399 19.6562 14.1919 19.3922 14.1919 19.0802C14.1919 18.7682 13.9279 18.5042 13.6159 18.5042Z" fill="#1A1C4C"/>
<path d="M17.2039 18.5042H16.0999C15.7759 18.5042 15.5239 18.7682 15.5239 19.0802C15.5239 19.3922 15.7879 19.6562 16.0999 19.6562H17.2039C17.5279 19.6562 17.7799 19.3922 17.7799 19.0802C17.7799 18.7682 17.5159 18.5042 17.2039 18.5042Z" fill="#1A1C4C"/>
<path d="M20.7799 18.5042H19.6759C19.3519 18.5042 19.0999 18.7682 19.0999 19.0802C19.0999 19.3922 19.3639 19.6562 19.6759 19.6562H20.7799C21.1039 19.6562 21.3559 19.3922 21.3559 19.0802C21.3559 18.7682 21.0919 18.5042 20.7799 18.5042Z" fill="#1A1C4C"/>
<path d="M24.3679 18.5042H23.2639C22.9399 18.5042 22.6879 18.7682 22.6879 19.0802C22.6879 19.3922 22.9519 19.6562 23.2639 19.6562H24.3679C24.6919 19.6562 24.944 19.3922 24.944 19.0802C24.944 18.7682 24.6799 18.5042 24.3679 18.5042Z" fill="#1A1C4C"/>
<path d="M26.8519 19.6682H27.9559C28.28 19.6682 28.5319 19.4042 28.5319 19.0922C28.5319 18.7802 28.268 18.5162 27.9559 18.5162H26.8519C26.528 18.5162 26.2759 18.7802 26.2759 19.0922C26.2759 19.4042 26.5399 19.6682 26.8519 19.6682Z" fill="#1A1C4C"/>
<path d="M12.4879 14.7482H13.5919C13.9159 14.7482 14.1679 14.4842 14.1679 14.1722C14.1679 13.8602 13.9039 13.5962 13.5919 13.5962H12.4879C12.1639 13.5962 11.9119 13.8602 11.9119 14.1722C11.9119 14.4842 12.1759 14.7482 12.4879 14.7482Z" fill="#1A1C4C"/>
<path d="M16.0759 14.7482H17.1799C17.5039 14.7482 17.7559 14.4842 17.7559 14.1722C17.7559 13.8602 17.4919 13.5962 17.1799 13.5962H16.0759C15.7519 13.5962 15.4999 13.8602 15.4999 14.1722C15.4999 14.4842 15.7639 14.7482 16.0759 14.7482Z" fill="#1A1C4C"/>
<path d="M19.6519 14.7482H20.7559C21.0799 14.7482 21.3319 14.4842 21.3319 14.1722C21.3319 13.8602 21.0679 13.5962 20.7559 13.5962H19.6519C19.3279 13.5962 19.0759 13.8602 19.0759 14.1722C19.0759 14.4842 19.3399 14.7482 19.6519 14.7482Z" fill="#1A1C4C"/>
<path d="M23.2399 14.7482H24.344C24.6679 14.7482 24.9199 14.4842 24.9199 14.1722C24.9199 13.8602 24.656 13.5962 24.344 13.5962H23.2399C22.9159 13.5962 22.6639 13.8602 22.6639 14.1722C22.6639 14.4842 22.9279 14.7482 23.2399 14.7482Z" fill="#1A1C4C"/>
<path d="M26.8279 14.7482H27.9319C28.2559 14.7482 28.5079 14.4842 28.5079 14.1722C28.5079 13.8602 28.2439 13.5962 27.9319 13.5962H26.8279C26.504 13.5962 26.2519 13.8602 26.2519 14.1722C26.2519 14.4842 26.5159 14.7482 26.8279 14.7482Z" fill="#1A1C4C"/>
<path d="M38.5159 34.1402C37.34 34.1402 36.5599 34.6442 35.8759 35.1002C35.2279 35.5202 34.6879 35.8682 33.7759 35.8802C32.6239 35.8802 32.1439 35.5202 31.5919 35.1122C30.9919 34.6682 30.2959 34.1522 28.8679 34.1522C27.4519 34.1522 26.7439 34.6802 26.1079 35.1482C25.5679 35.5562 25.136 35.8682 24.2239 35.8802H24.1639C23.0479 35.8802 22.5199 35.5082 21.8959 35.0882C21.2599 34.6562 20.5399 34.1522 19.2439 34.1282C17.9479 34.1042 17.1679 34.6202 16.4719 35.0762C15.8239 35.5082 15.2599 35.8802 14.2999 35.8802C13.2919 35.8802 12.8599 35.5562 12.2599 35.1242C11.5999 34.6442 10.8439 34.1042 9.37995 34.1042C7.51995 34.1042 5.41995 36.1202 5.19195 36.3482C4.96395 36.5762 4.96395 36.9362 5.19195 37.1642C5.29995 37.2842 5.45595 37.3442 5.61195 37.3442C5.76795 37.3442 5.91195 37.2842 6.01995 37.1762C6.55995 36.6482 8.21595 35.2682 9.39195 35.2682C10.4839 35.2682 10.9999 35.6402 11.5999 36.0602C12.2359 36.5162 12.9559 37.0322 14.2879 37.0322H14.3119C15.6199 37.0322 16.4239 36.5042 17.1199 36.0362C17.7559 35.6162 18.3079 35.2562 19.2199 35.2802C20.1679 35.3042 20.6599 35.6522 21.2359 36.0362C21.9199 36.5042 22.6879 37.0322 24.1639 37.0322H24.236C25.5199 37.0202 26.2039 36.5162 26.8039 36.0722C27.3559 35.6642 27.8359 35.3042 28.8679 35.3042C29.9239 35.3042 30.3559 35.6282 30.9079 36.0362C31.5319 36.5042 32.2399 37.0202 33.7759 37.0322C35.0359 37.0322 35.8039 36.5162 36.5119 36.0602C37.1479 35.6522 37.7 35.2922 38.528 35.2922C40.424 35.2922 41.9599 37.1162 41.972 37.1282C42.1759 37.3802 42.548 37.4042 42.7879 37.2002C43.0399 36.9962 43.0639 36.6242 42.8599 36.3842C42.7879 36.2882 40.964 34.1282 38.5159 34.1282V34.1402Z" fill="#1A1C4C"/>
<path d="M38.5159 38.5802C37.34 38.5802 36.5599 39.0842 35.8759 39.5402C35.2279 39.9602 34.6519 40.3202 33.7759 40.3202C32.6239 40.3202 32.1439 39.9602 31.5919 39.5522C30.9919 39.1082 30.2959 38.5922 28.8679 38.5922C27.4519 38.5922 26.7439 39.1202 26.1079 39.5882C25.5679 39.9962 25.136 40.3082 24.2239 40.3202H24.1639C23.0479 40.3202 22.5199 39.9482 21.8959 39.5282C21.2599 39.0962 20.5399 38.5922 19.2439 38.5682C17.9479 38.5442 17.1679 39.0602 16.4719 39.5162C15.8239 39.9482 15.2599 40.3202 14.2999 40.3202C13.3159 40.2962 12.8599 39.9962 12.2599 39.5642C11.5999 39.0842 10.8439 38.5442 9.37995 38.5442C7.51995 38.5442 5.41995 40.5602 5.19195 40.7882C4.96395 41.0162 4.96395 41.3762 5.19195 41.6042C5.29995 41.7242 5.45595 41.7842 5.61195 41.7842C5.76795 41.7842 5.91195 41.7242 6.01995 41.6162C6.55995 41.0882 8.21595 39.7082 9.39195 39.7082C10.4839 39.7082 10.9999 40.0802 11.5999 40.5002C12.2359 40.9562 12.9679 41.4842 14.3119 41.4722C15.6199 41.4722 16.4239 40.9442 17.1199 40.4762C17.7559 40.0562 18.2839 39.6962 19.2199 39.7202C20.1679 39.7442 20.6599 40.0922 21.2359 40.4762C21.9319 40.9562 22.6999 41.5082 24.2239 41.4722C25.5199 41.4602 26.1919 40.9562 26.7919 40.5122C27.3439 40.1042 27.8239 39.7442 28.856 39.7442C29.912 39.7442 30.3439 40.0682 30.8959 40.4762C31.5199 40.9442 32.2279 41.4602 33.7639 41.4722H33.7879C34.9999 41.4722 35.792 40.9562 36.4999 40.5002C37.1359 40.0922 37.688 39.7322 38.5159 39.7322C40.4119 39.7322 41.9479 41.5562 41.9599 41.5682C42.1639 41.8202 42.5359 41.8442 42.7759 41.6402C43.028 41.4362 43.052 41.0642 42.8479 40.8242C42.776 40.7282 40.952 38.5682 38.5039 38.5682L38.5159 38.5802Z" fill="#1A1C4C"/>
</svg>
